<?xml version="1.0" ?><!DOCTYPE svg  PUBLIC '-//W3C//DTD SVG 1.1//EN'  'http://www.w3.org/Graphics/SVG/1.1/DTD/svg11.dtd'><svg enable-background="new 0 0 512 512" height="512px" id="Слой_1" version="1.1" viewBox="0 0 512 512" width="512px" xml:space="preserve" xmlns="http://www.w3.org/2000/svg" xmlns:xlink="http://www.w3.org/1999/xlink"><g id="Designer"><g><path d="M204.879,28.54c0,0-55.533,56.967-12.109,86.754l8.838,3.961l8.436-4.742    C241.137,70.007,203.801,81.007,204.879,28.54z" fill="#442727"/><path d="M205.072,37.181c-0.102-1.535-0.17-3.127-0.195-4.793c-0.131-0.975-0.305-2.088-0.504-3.309    c-5.449,5.814-52.576,58.107-11.604,86.215c0,0,6.98,3.914,8.098,3.594c1.109-0.328,1.189-1.814,1.043-2.061    c0,0-18.383-16.486-16.037-36.547c1.49-12.727,13.66-34.873,19.197-43.088C205.07,37.187,205.072,37.187,205.072,37.181z" fill="#FFFFFF" opacity="0.1"/><rect fill="#E8563F" height="126.445" transform="matrix(0.999 -0.0452 0.0452 0.999 -10.2358 9.5775)" width="24.715" x="194.291" y="167.89"/><path d="M210.043,114.513c0,0-4.086,2.02-8.563,2.355c-4.477,0.34-8.711-1.574-8.711-1.574l-2.52,53.273    c0,0,4.15,2.279,13.664,1.934c9.516-0.348,13.432-3.16,13.432-3.16L210.043,114.513z" fill="#CBD0D8"/><path d="M208.83,294.302l13.01-0.59l-5.67-125.719c0.803-0.379,1.176-0.652,1.176-0.652l-7.303-52.828    c0,0-3.83,1.881-8.133,2.314L208.83,294.302z" opacity="0.1"/></g><g><polygon fill="#CBD0D8" points="318.609,470.154 241.281,456.068 323.445,5.2 400.77,19.286   "/><g><rect fill="#E5E8EC" height="458.294" transform="matrix(-0.9838 -0.1792 0.1792 -0.9838 490.9746 500.4299)" width="29.007" x="253.591" y="-1.112"/><g><polygon fill="#646C77" points="300.461,10.073 300.039,12.372 314.281,14.966 314.695,12.665     "/><polygon fill="#646C77" points="307.156,19.446 299.02,17.966 298.602,20.267 306.734,21.753     "/><polygon fill="#646C77" points="305.711,27.341 297.578,25.86 297.16,28.167 305.293,29.653     "/><polygon fill="#646C77" points="304.277,35.239 296.141,33.759 295.723,36.067 303.859,37.54     "/><polygon fill="#646C77" points="302.836,43.134 294.703,41.661 294.281,43.954 302.414,45.435     "/><rect fill="#646C77" height="2.346" transform="matrix(-0.9838 -0.1792 0.1792 -0.9838 586.1729 156.9466)" width="14.476" x="292.936" y="50.83"/><rect fill="#646C77" height="2.339" transform="matrix(0.9837 0.18 -0.18 0.9837 15.5118 -52.2561)" width="8.268" x="291.55" y="58.171"/><polygon fill="#646C77" points="298.52,66.827 290.387,65.341 289.969,67.646 298.102,69.134     "/><polygon fill="#646C77" points="297.078,74.728 288.945,73.239 288.531,75.548 296.66,77.026     "/><polygon fill="#646C77" points="295.641,82.62 287.508,81.134 287.09,83.44 295.223,84.919     "/><rect fill="#646C77" height="2.339" transform="matrix(-0.9837 -0.1797 0.1797 -0.9837 564.7532 234.1241)" width="14.478" x="285.742" y="90.314"/><polygon fill="#646C77" points="292.766,98.413 284.633,96.935 284.211,99.228 292.344,100.714     "/><rect fill="#646C77" height="2.344" transform="matrix(0.9839 0.1788 -0.1788 0.9839 23.7042 -49.5993)" width="8.27" x="282.912" y="105.548"/><polygon fill="#646C77" points="289.883,114.208 281.75,112.72 281.328,115.026 289.469,116.507     "/><polygon fill="#646C77" points="288.445,122.101 280.313,120.62 279.891,122.919 288.027,124.407     "/><rect fill="#646C77" height="2.337" transform="matrix(-0.9838 -0.179 0.179 -0.9838 543.5002 310.986)" width="14.476" x="278.545" y="129.8"/><polygon fill="#646C77" points="285.57,137.894 277.438,136.413 277.016,138.714 285.148,140.192     "/><polygon fill="#646C77" points="284.125,145.786 275.996,144.306 275.578,146.614 283.707,148.101     "/><rect fill="#646C77" height="2.337" transform="matrix(0.9839 0.1789 -0.1789 0.9839 32.0522 -47.3131)" width="8.266" x="274.279" y="152.928"/><rect fill="#646C77" height="2.337" transform="matrix(0.9839 0.1789 -0.1789 0.9839 33.4407 -46.9287)" width="8.266" x="272.842" y="160.821"/><rect fill="#646C77" height="2.343" transform="matrix(-0.9838 -0.1792 0.1792 -0.9838 522.132 388.0572)" width="14.476" x="271.352" y="169.279"/><rect fill="#646C77" height="2.343" transform="matrix(0.9837 0.1798 -0.1798 0.9837 36.4276 -46.3804)" width="8.268" x="269.964" y="176.612"/><rect fill="#646C77" height="2.346" transform="matrix(0.9838 0.1791 -0.1791 0.9838 37.6625 -45.8292)" width="8.266" x="268.525" y="184.508"/><polygon fill="#646C77" points="275.496,193.173 267.363,191.688 266.945,193.987 275.078,195.466     "/><polygon fill="#646C77" points="274.055,201.067 265.922,199.579 265.504,201.88 273.637,203.368     "/><rect fill="#646C77" height="2.337" transform="matrix(-0.9838 -0.1792 0.1792 -0.9838 500.7807 465.0839)" width="14.476" x="264.154" y="208.759"/><rect fill="#646C77" height="2.337" transform="matrix(0.9837 0.1799 -0.1799 0.9837 43.4309 -44.4622)" width="8.264" x="262.769" y="216.098"/><rect fill="#646C77" height="2.347" transform="matrix(0.9837 0.18 -0.18 0.9837 44.8678 -44.1077)" width="8.268" x="261.331" y="223.992"/><polygon fill="#646C77" points="268.301,232.653 260.164,231.165 259.746,233.466 267.883,234.954     "/><polygon fill="#646C77" points="266.859,240.548 258.727,239.067 258.305,241.368 266.445,242.849     "/><polygon fill="#646C77" points="256.867,249.259 271.109,251.853 271.531,249.556 257.289,246.962     "/><polygon fill="#646C77" points="263.984,256.341 255.852,254.86 255.43,257.161 263.563,258.649     "/><rect fill="#646C77" height="2.347" transform="matrix(0.9836 0.1801 -0.1801 0.9836 51.8831 -42.1848)" width="8.264" x="254.136" y="263.472"/><polygon fill="#646C77" points="261.109,272.134 252.973,270.653 252.551,272.954 260.688,274.435     "/><rect fill="#646C77" height="2.338" transform="matrix(0.9838 0.1791 -0.1791 0.9838 54.3538 -41.2043)" width="8.266" x="251.255" y="279.269"/><rect fill="#646C77" height="2.347" transform="matrix(-0.9838 -0.1792 0.1792 -0.9838 458.0885 619.152)" width="14.476" x="249.766" y="287.716"/><polygon fill="#646C77" points="256.789,295.829 248.656,294.341 248.234,296.642 256.367,298.122     "/><polygon fill="#646C77" points="255.352,303.712 247.211,302.235 246.797,304.54 254.93,306.021     "/><polygon fill="#646C77" points="253.91,311.622 245.777,310.134 245.359,312.435 253.492,313.915     "/><polygon fill="#646C77" points="252.469,319.513 244.34,318.028 243.922,320.329 252.055,321.806     "/><rect fill="#646C77" height="2.338" transform="matrix(-0.9838 -0.1792 0.1792 -0.9838 436.7221 696.2017)" width="14.473" x="242.572" y="327.205"/><rect fill="#646C77" height="2.338" transform="matrix(0.9837 0.1796 -0.1796 0.9837 64.2644 -38.5913)" width="8.267" x="241.185" y="334.545"/><rect fill="#646C77" height="2.338" transform="matrix(0.9838 0.179 -0.179 0.9838 65.4491 -38.1065)" width="8.27" x="239.744" y="342.441"/><rect fill="#646C77" height="2.347" transform="matrix(0.9838 0.1791 -0.1791 0.9838 66.8727 -37.7365)" width="8.266" x="238.308" y="350.335"/><rect fill="#646C77" height="2.335" transform="matrix(0.9839 0.1786 -0.1786 0.9839 68.0453 -37.2557)" width="8.27" x="236.865" y="358.236"/><rect fill="#646C77" height="2.342" transform="matrix(-0.9838 -0.1794 0.1794 -0.9838 415.304 773.263)" width="14.481" x="235.373" y="366.683"/><polygon fill="#646C77" points="242.398,374.79 234.266,373.306 233.844,375.606 241.977,377.087     "/><rect fill="#646C77" height="2.348" transform="matrix(0.9838 0.1791 -0.1791 0.9838 72.4365 -36.1946)" width="8.266" x="232.55" y="381.921"/><rect fill="#646C77" height="2.335" transform="matrix(0.9839 0.1786 -0.1786 0.9839 73.6287 -35.7341)" width="8.266" x="231.111" y="389.823"/><polygon fill="#646C77" points="238.078,398.475 229.949,396.994 229.531,399.295 237.664,400.775     "/><rect fill="#646C77" height="2.347" transform="matrix(-0.9838 -0.1792 0.1792 -0.9838 394.0257 850.2761)" width="14.473" x="228.184" y="406.166"/><rect fill="#646C77" height="2.347" transform="matrix(-0.9836 -0.1801 0.1801 -0.9836 383.3998 864.1636)" width="8.264" x="226.796" y="413.504"/><rect fill="#646C77" height="2.347" transform="matrix(-0.9838 -0.1791 0.1791 -0.9838 379.5856 879.42)" width="8.266" x="225.355" y="421.403"/><polygon fill="#646C77" points="223.773,430.881 231.906,432.361 232.328,430.057 224.188,428.58     "/><polygon fill="#646C77" points="222.334,438.775 230.469,440.256 230.887,437.955 222.754,436.482     "/></g></g></g><g><path d="M153.916,106.974c0.814,6.672-3.939,12.754-10.619,13.559l-5.891,0.723    c-6.676,0.813-12.75-3.949-13.563-10.621l-2.371-19.488c-0.811-6.68,3.947-12.752,10.623-13.559l5.891-0.719    c6.676-0.814,12.75,3.945,13.563,10.617L153.916,106.974z" fill="#EB87BF"/><polygon fill="#E5E8EC" points="153.217,101.228 123.15,104.88 128.877,151.966 158.943,148.306   "/><polygon fill="#F5BA45" points="184.973,362.341 169.936,364.173 143.906,150.146 158.943,148.306   "/><rect fill="#F5BA45" height="215.612" transform="matrix(0.9927 -0.1206 0.1206 0.9927 -30.0966 19.5723)" width="9.554" x="141.857" y="150.601"/><polygon fill="#FECD57" points="169.936,364.173 154.906,366.001 128.877,151.966 143.906,150.146   "/><polygon fill="#F4F6F9" points="157.764,138.634 127.695,142.294 127.16,137.86 157.223,134.2   "/><rect fill="#F4F6F9" height="4.466" transform="matrix(0.9927 -0.1206 0.1206 0.9927 -13.2873 17.7562)" width="30.291" x="124.937" y="116.444"/><path d="M137.986,76.868l-2.947,0.359l8.867,72.918l15.037-1.84l-5.02-41.258l-2.387-19.629    C150.689,80.78,144.641,76.06,137.986,76.868z" opacity="0.1"/></g><g><path d="M111.23,227.935l14.063,230.896c0.277,4.52,3.967,9.539,8.199,11.152l107.219,40.813    c4.234,1.605,11.164,1.605,15.398,0l107.219-40.813c4.234-1.613,7.922-6.633,8.199-11.152l14.063-230.896H111.23z" fill="#D94452"/><g opacity="0.05"><polygon fill="#FFFFFF" points="154.633,227.935 127.844,227.935 112.184,243.595 112.924,255.72 113.719,268.841    "/><polygon fill="#FFFFFF" points="181.42,227.935 115.26,294.095 115.732,301.876 116.797,319.349 208.209,227.935    "/><polygon fill="#FFFFFF" points="235,227.935 118.336,344.595 119.873,369.849 261.789,227.935    "/><polygon fill="#FFFFFF" points="288.578,227.935 121.412,395.096 122.949,420.35 315.367,227.935    "/><path d="M125.477,460.15c0.053,0.266,0.113,0.523,0.184,0.785c0.025,0.094,0.049,0.18,0.08,0.273     c0.209,0.707,0.49,1.406,0.832,2.094c0.023,0.047,0.051,0.094,0.078,0.145c0.16,0.316,0.332,0.621,0.516,0.93     c0.02,0.031,0.041,0.066,0.061,0.098c0.65,1.047,1.43,2.02,2.303,2.875l0,0l239.416-239.415h-26.789L124.49,445.604l0.803,13.227     c0.023,0.34,0.066,0.688,0.127,1.023C125.436,459.947,125.457,460.057,125.477,460.15z" fill="#FFFFFF"/><polygon fill="#FFFFFF" points="167.527,482.936 383.195,267.259 384.934,238.735 148.119,475.541    "/><polygon fill="#FFFFFF" points="206.33,497.709 379.719,324.313 381.457,295.786 186.93,490.314    "/><path d="M377.984,352.849l-152.25,152.247l14.977,5.699c1.438,0.547,3.188,0.902,5.035,1.082l130.496-130.501     L377.984,352.849z" fill="#FFFFFF"/><polygon fill="#FFFFFF" points="327.625,483.568 372.77,438.428 374.508,409.9 284.375,500.029    "/></g><g opacity="0.05"><polygon fill="#FFFFFF" points="383.102,268.841 384.637,243.595 368.977,227.935 342.188,227.935    "/><polygon fill="#FFFFFF" points="315.398,227.935 288.609,227.935 380.023,319.349 380.051,318.923 381.563,294.095    "/><polygon fill="#FFFFFF" points="376.945,369.849 378.484,344.603 261.82,227.935 235.031,227.935    "/><polygon fill="#FFFFFF" points="208.24,227.935 181.453,227.935 373.871,420.35 374.781,405.416 375.254,397.627      375.406,395.104    "/><path d="M154.662,227.935h-26.789L367.289,467.35l0,0l0,0c0.875-0.848,1.656-1.828,2.301-2.875     c0.02-0.027,0.035-0.051,0.055-0.078c0.004-0.008,0.004-0.016,0.012-0.02c0.18-0.301,0.352-0.609,0.512-0.922     c0.02-0.039,0.051-0.094,0.074-0.141c0-0.008,0.004-0.012,0.004-0.012c0.344-0.688,0.621-1.387,0.832-2.086     c0.023-0.082,0.047-0.16,0.07-0.242c0-0.012,0.008-0.027,0.008-0.039c0.074-0.262,0.133-0.52,0.188-0.781     c0.02-0.098,0.039-0.199,0.055-0.301c0.059-0.344,0.105-0.684,0.129-1.023l0.801-13.227L154.662,227.935z" fill="#FFFFFF"/><polygon fill="#FFFFFF" points="113.627,267.259 329.293,482.936 348.695,475.549 111.887,238.735    "/><polygon fill="#FFFFFF" points="117.1,324.321 290.484,497.709 309.891,490.314 115.363,295.786    "/><path d="M118.836,352.849l1.74,28.527l130.498,130.501c1.848-0.18,3.598-0.535,5.035-1.082l14.977-5.699     L118.836,352.849z" fill="#FFFFFF"/><polygon fill="#FFFFFF" points="169.193,483.568 212.447,500.037 122.313,409.9 124.049,438.428    "/></g><g opacity="0.23"><path d="M245.086,502.396c0,0,0,0-0.492,0c-1.234,0-1.234,0-1.234,0c-0.516-0.105-1.723-0.496-2.688-0.859     l-10.547-4.016c-0.969-0.367-1.961-0.137-2.203,0.508c-0.25,0.641,0.344,1.473,1.313,1.84l10.605,4.031     c0.973,0.375,2.656,0.816,3.402,0.891c0.742,0.059,1.609,0.105,1.93,0.098c0.313-0.012,1.047-0.641,0.969-1.324     C246.063,502.885,245.586,502.35,245.086,502.396z" fill="#FFFFFF"/><path d="M221.137,494.104l-14.449-5.5c-0.971-0.367-1.965-0.141-2.207,0.5c-0.248,0.645,0.342,1.477,1.313,1.84     l14.451,5.5c0.965,0.371,1.959,0.145,2.205-0.5C222.697,495.303,222.104,494.471,221.137,494.104z" fill="#FFFFFF"/><path d="M197.693,485.182l-14.451-5.508c-0.965-0.367-1.959-0.137-2.203,0.508     c-0.246,0.641,0.344,1.473,1.314,1.84l14.447,5.5c0.969,0.367,1.963,0.141,2.205-0.5     C199.254,486.377,198.66,485.549,197.693,485.182z" fill="#FFFFFF"/><path d="M174.254,476.256l-14.451-5.5c-0.969-0.367-1.963-0.141-2.207,0.5c-0.246,0.645,0.348,1.473,1.316,1.848     l14.447,5.5c0.971,0.367,1.963,0.141,2.207-0.508C175.813,477.455,175.221,476.623,174.254,476.256z" fill="#FFFFFF"/><path d="M150.811,467.338l-13.691-5.215c-0.969-0.375-1.773-0.859-1.787-1.094     c-0.016-0.227-0.59-0.387-1.279-0.34c-0.686,0.031-1.217,0.625-1.176,1.301c0.043,0.68,0.865,1.531,1.836,1.898l15.207,5.785     c0.967,0.367,1.959,0.141,2.207-0.5C152.373,468.529,151.779,467.701,150.811,467.338z" fill="#FFFFFF"/><path d="M133.699,454.842c0.688-0.039,1.201-0.918,1.137-1.953l-0.939-15.434     c-0.064-1.039-0.68-1.848-1.367-1.805c-0.689,0.039-1.199,0.918-1.137,1.953l0.939,15.438     C132.396,454.076,133.01,454.889,133.699,454.842z" fill="#FFFFFF"/><path d="M132.174,429.807c0.689-0.039,1.199-0.918,1.137-1.957l-0.941-15.426     c-0.063-1.043-0.676-1.855-1.365-1.809c-0.688,0.039-1.197,0.918-1.137,1.961l0.939,15.426     C130.869,429.041,131.486,429.85,132.174,429.807z" fill="#FFFFFF"/><path d="M130.65,404.768c0.686-0.039,1.199-0.918,1.137-1.953l-0.941-15.434     c-0.063-1.031-0.676-1.848-1.365-1.801c-0.688,0.043-1.201,0.922-1.137,1.953l0.939,15.438     C129.346,404.002,129.959,404.814,130.65,404.768z" fill="#FFFFFF"/><path d="M129.123,379.735c0.689-0.039,1.199-0.922,1.137-1.953l-0.939-15.434     c-0.064-1.035-0.678-1.848-1.363-1.809c-0.691,0.047-1.203,0.922-1.141,1.961l0.939,15.434     C127.82,378.97,128.436,379.782,129.123,379.735z" fill="#FFFFFF"/><path d="M127.6,354.7c0.688-0.039,1.199-0.926,1.137-1.957l-0.939-15.43c-0.066-1.031-0.68-1.844-1.367-1.805     c-0.689,0.039-1.199,0.918-1.137,1.953l0.939,15.434C126.293,353.935,126.91,354.743,127.6,354.7z" fill="#FFFFFF"/><path d="M126.072,329.669c0.691-0.047,1.201-0.926,1.137-1.961l-0.939-15.434     c-0.063-1.031-0.676-1.848-1.367-1.801c-0.686,0.039-1.199,0.922-1.137,1.953l0.941,15.434     C124.77,328.896,125.383,329.708,126.072,329.669z" fill="#FFFFFF"/><path d="M124.549,304.626c0.688-0.039,1.197-0.918,1.137-1.953l-0.939-15.434     c-0.063-1.039-0.68-1.844-1.367-1.805c-0.689,0.039-1.199,0.926-1.137,1.961l0.938,15.434     C123.246,303.86,123.859,304.673,124.549,304.626z" fill="#FFFFFF"/><path d="M123.023,279.595c0.686-0.039,1.199-0.922,1.137-1.961l-0.941-15.426     c-0.063-1.043-0.676-1.855-1.365-1.809c-0.688,0.039-1.201,0.922-1.137,1.953l0.939,15.434     C121.719,278.829,122.332,279.634,123.023,279.595z" fill="#FFFFFF"/><path d="M121.496,254.56c0.689-0.039,1.199-0.926,1.141-1.953l-0.943-15.441     c-0.064-1.031-0.678-1.844-1.363-1.797c-0.691,0.039-1.201,0.918-1.137,1.953l0.936,15.434     C120.193,253.786,120.809,254.603,121.496,254.56z" fill="#FFFFFF"/><path d="M268.34,497.521l-10.539,4.016c-0.973,0.363-2.184,0.754-2.691,0.859c0,0,0,0-1.234,0     c-0.488,0-0.488,0-0.488,0c-0.504-0.047-0.984,0.488-1.059,1.168c-0.082,0.684,0.102,1.266,0.406,1.289     c0.309,0.031,3.063-0.023,3.438-0.117c0.383-0.086,1.484-0.461,2.453-0.836l10.609-4.031c0.965-0.367,1.559-1.199,1.313-1.84     C270.305,497.385,269.313,497.154,268.34,497.521z" fill="#FFFFFF"/><path d="M291.781,488.604l-14.453,5.5c-0.965,0.367-1.555,1.199-1.313,1.84c0.25,0.645,1.242,0.871,2.211,0.5     l14.445-5.5c0.969-0.363,1.563-1.195,1.32-1.84C293.742,488.463,292.75,488.236,291.781,488.604z" fill="#FFFFFF"/><path d="M315.223,479.674l-14.449,5.508c-0.969,0.367-1.563,1.195-1.313,1.84c0.242,0.641,1.234,0.867,2.203,0.5     l14.453-5.5c0.969-0.367,1.563-1.199,1.313-1.84C317.184,479.537,316.188,479.307,315.223,479.674z" fill="#FFFFFF"/><path d="M338.664,470.756l-14.453,5.5c-0.965,0.367-1.555,1.199-1.313,1.84c0.25,0.648,1.238,0.875,2.211,0.508     l14.445-5.5c0.969-0.375,1.563-1.203,1.316-1.848C340.625,470.615,339.633,470.389,338.664,470.756z" fill="#FFFFFF"/><path d="M364.414,460.689c-0.688-0.047-1.266,0.113-1.277,0.34c-0.012,0.234-0.82,0.719-1.785,1.094     l-13.695,5.215c-0.969,0.363-1.559,1.191-1.313,1.836c0.242,0.641,1.234,0.867,2.203,0.5l15.207-5.785     c0.973-0.367,1.797-1.219,1.836-1.898C365.633,461.314,365.102,460.721,364.414,460.689z" fill="#FFFFFF"/><path d="M365.938,435.65c-0.688-0.043-1.305,0.766-1.363,1.805l-0.941,15.434     c-0.066,1.035,0.445,1.914,1.133,1.953c0.691,0.047,1.309-0.766,1.367-1.801l0.945-15.438     C367.137,436.568,366.625,435.689,365.938,435.65z" fill="#FFFFFF"/><path d="M367.461,410.615c-0.688-0.047-1.301,0.766-1.363,1.809l-0.941,15.426     c-0.063,1.039,0.445,1.918,1.137,1.957c0.691,0.043,1.305-0.766,1.367-1.805l0.941-15.426     C368.664,411.533,368.148,410.654,367.461,410.615z" fill="#FFFFFF"/><path d="M368.984,385.58c-0.684-0.047-1.301,0.77-1.359,1.801l-0.945,15.434     c-0.059,1.035,0.453,1.914,1.141,1.953c0.688,0.047,1.305-0.766,1.363-1.797l0.941-15.438     C370.188,386.502,369.68,385.623,368.984,385.58z" fill="#FFFFFF"/><path d="M370.516,360.54c-0.691-0.039-1.305,0.773-1.367,1.809l-0.941,15.434     c-0.063,1.031,0.449,1.914,1.137,1.953c0.688,0.047,1.305-0.766,1.367-1.801l0.938-15.434     C371.711,361.462,371.203,360.587,370.516,360.54z" fill="#FFFFFF"/><path d="M372.039,335.509c-0.688-0.039-1.305,0.773-1.367,1.805l-0.938,15.43     c-0.066,1.031,0.445,1.918,1.137,1.957c0.684,0.043,1.301-0.766,1.363-1.805l0.945-15.434     C373.234,336.427,372.727,335.548,372.039,335.509z" fill="#FFFFFF"/><path d="M373.563,310.474c-0.688-0.047-1.305,0.77-1.367,1.801l-0.938,15.434     c-0.063,1.035,0.449,1.914,1.141,1.961c0.688,0.039,1.305-0.773,1.359-1.809l0.945-15.434     C374.766,311.396,374.254,310.513,373.563,310.474z" fill="#FFFFFF"/><path d="M375.09,285.435c-0.691-0.039-1.309,0.766-1.371,1.805l-0.938,15.434     c-0.063,1.035,0.449,1.914,1.141,1.953c0.688,0.047,1.297-0.766,1.359-1.797l0.945-15.434     C376.289,286.36,375.777,285.474,375.09,285.435z" fill="#FFFFFF"/><path d="M376.613,260.399c-0.691-0.047-1.301,0.766-1.367,1.809l-0.941,15.426     c-0.063,1.039,0.453,1.922,1.141,1.961s1.301-0.766,1.367-1.809l0.938-15.434C377.813,261.321,377.305,260.438,376.613,260.399z" fill="#FFFFFF"/><path d="M378.137,235.368c-0.684-0.047-1.301,0.766-1.363,1.797l-0.938,15.441     c-0.066,1.027,0.445,1.914,1.133,1.953c0.688,0.043,1.305-0.773,1.367-1.805l0.941-15.434     C379.336,236.286,378.828,235.407,378.137,235.368z" fill="#FFFFFF"/></g></g></g></svg>