<?xml version="1.0" ?><!DOCTYPE svg  PUBLIC '-//W3C//DTD SVG 1.1//EN'  'http://www.w3.org/Graphics/SVG/1.1/DTD/svg11.dtd'><svg enable-background="new 0 0 512 512" height="512px" id="Слой_1" version="1.1" viewBox="0 0 512 512" width="512px" xml:space="preserve" xmlns="http://www.w3.org/2000/svg" xmlns:xlink="http://www.w3.org/1999/xlink"><g id="Features"><path d="M458.764,498.227c0,7.605-6.164,13.773-13.773,13.773H67.018c-7.613,0-13.781-6.168-13.781-13.773V28.533   c0-7.607,6.168-13.773,13.781-13.773H444.99c7.609,0,13.773,6.166,13.773,13.773V498.227z" fill="#303842"/><path d="M458.764,483.469c0,7.605-6.164,13.773-13.773,13.773H67.018c-7.613,0-13.781-6.168-13.781-13.773V13.773   C53.236,6.172,59.404,0,67.018,0H444.99c7.609,0,13.773,6.172,13.773,13.773V483.469z" fill="#434A54"/><g><g><polygon fill="#E6E9ED" points="316.83,459.848 90.631,459.848 90.631,37.395 421.381,37.395 421.381,348.66    "/><polygon fill="#CCD1D9" points="316.83,348.66 421.381,348.66 316.83,459.848    "/></g><g><g><rect fill="#434A54" height="12" width="157.277" x="224.143" y="136.641"/><rect fill="#434A54" height="11.992" width="60.207" x="224.143" y="172.641"/><polygon fill="#4B89DA" points="199.391,133.672 191.189,131.773 155.943,165.266 136.09,156.58 131.029,156.898       156.756,182.141 156.883,181.992 157.029,182.121     "/></g><g><rect fill="#434A54" height="12" width="157.277" x="224.143" y="242.922"/><rect fill="#434A54" height="12" width="60.207" x="224.143" y="278.914"/><polygon fill="#4B89DA" points="199.391,239.953 191.189,238.055 155.943,271.547 136.09,262.852 131.029,263.172       156.756,288.414 156.883,288.266 157.029,288.398     "/></g><g><rect fill="#434A54" height="12" width="60.207" x="224.143" y="349.172"/><rect fill="#434A54" height="12" width="60.207" x="224.143" y="385.168"/><polygon fill="#4B89DA" points="199.391,346.207 191.189,344.305 155.943,377.801 136.09,369.105 131.029,369.426       156.756,394.668 156.883,394.52 157.029,394.652     "/></g></g></g><g><rect fill="#C2C8CC" height="12.793" width="186.289" x="162.857"/><path d="M359.17,11.807H152.83c-6.514,0-11.793,5.279-11.793,11.793v27.119c0,6.516,5.279,11.793,11.793,11.793    h69.893c7.021,10.975,19.283,18.273,33.283,18.273c13.992,0,26.258-7.299,33.273-18.273h69.891    c6.516,0,11.797-5.277,11.797-11.793V23.6C370.967,17.086,365.686,11.807,359.17,11.807z M357.193,48.734h-67.914h-7.543    l-4.066,6.359c-4.773,7.459-12.875,11.914-21.664,11.914c-8.805,0-16.902-4.455-21.676-11.914l-4.059-6.359h-7.549h-67.906V25.586    h202.377V48.734z" fill="#CBD0D8"/></g></g></svg>