<?xml version="1.0" ?><!DOCTYPE svg  PUBLIC '-//W3C//DTD SVG 1.1//EN'  'http://www.w3.org/Graphics/SVG/1.1/DTD/svg11.dtd'><svg enable-background="new 0 0 512 512" height="512px" id="Слой_1" version="1.1" viewBox="0 0 512 512" width="512px" xml:space="preserve" xmlns="http://www.w3.org/2000/svg" xmlns:xlink="http://www.w3.org/1999/xlink"><g id="Monitoring"><g><path d="M512,362.49V63.795c0-21.688-17.578-39.254-39.258-39.254H39.244C17.574,24.541,0,42.107,0,63.795V362.49    H512z" fill="#43454F"/><g><path d="M472.742,139.693c0,5.336-5.02,9.594-11.203,9.594l-411.092,0.008c-6.188,0-11.203-4.328-11.203-9.66     V73.494c0-5.34,5.016-9.666,11.203-9.666h411.092c6.184,0,11.203,4.326,11.203,9.66V139.693z" fill="#CCD1D9"/><rect fill="#E5E8EC" height="234.273" width="433.498" x="39.244" y="88.947"/><path d="M57.883,73.822c-2.193,0-3.98,1.539-3.98,3.434c0,1.893,1.787,3.434,3.98,3.434     c2.197,0,3.988-1.541,3.988-3.434C61.871,75.361,60.08,73.822,57.883,73.822z" fill="#E6E9ED"/><path d="M76.184,73.822c-2.199,0-3.984,1.539-3.984,3.434c0,1.893,1.785,3.434,3.984,3.434     c2.193,0,3.98-1.541,3.98-3.434C80.164,75.361,78.377,73.822,76.184,73.822z" fill="#E6E9ED"/><path d="M94.477,73.822c-2.193,0-3.98,1.539-3.98,3.434c0,1.893,1.787,3.434,3.98,3.434     c2.199,0,3.986-1.541,3.986-3.434C98.463,75.361,96.676,73.822,94.477,73.822z" fill="#E6E9ED"/></g><polygon fill="#CCD1D9" points="332.469,458.939 179.527,458.939 189.293,417.092 322.707,417.092   "/><path d="M0,362.49v15.34c0,21.684,17.574,39.262,39.244,39.262h433.498c21.68,0,39.258-17.594,39.258-39.262    v-15.34H0z" fill="#E6E9ED"/><path d="M159.746,487.459c-7.877,0-14.26-6.387-14.26-14.262l0,0c0-7.871,6.383-14.258,14.26-14.258H352.25    c7.875,0,14.258,6.387,14.258,14.258l0,0c0,7.875-6.383,14.262-14.258,14.262H159.746z" fill="#E6E9ED"/><rect fill="#EC5564" height="9.699" width="86.406" x="278.969" y="180.643"/><rect fill="#F4F6F9" height="234.273" width="433.498" x="39.244" y="88.947"/><g><polygon fill="#4A89DC" points="60.461,110.209 60.211,201.201 451.48,201.201 451.48,110.209    "/><rect fill="#FFFFFF" height="2.953" width="263.625" x="124.063" y="144.701"/><rect fill="#FFFFFF" height="2.953" width="131.887" x="189.934" y="153.721"/><rect fill="#FFFFFF" height="2.955" width="65.984" x="222.883" y="162.74"/></g><g><rect fill="#FFFFFF" height="79.785" width="116.25" x="335.23" y="222.463"/><path d="M409.945,251.342c0,9.16-7.43,16.586-16.586,16.586c-9.164,0-16.594-7.426-16.594-16.586     c0-9.168,7.43-16.586,16.594-16.586C402.516,234.756,409.945,242.174,409.945,251.342z" fill="#5D9CEC"/><rect fill="#656D78" height="2.957" width="79.797" x="353.457" y="278.58"/><rect fill="#656D78" height="2.953" width="27.926" x="379.391" y="287.6"/></g><g><rect fill="#FFFFFF" height="79.785" width="116.248" x="197.721" y="222.463"/><path d="M272.434,251.342c0,9.16-7.426,16.586-16.586,16.586c-9.164,0-16.59-7.426-16.59-16.586     c0-9.168,7.426-16.586,16.59-16.586C265.008,234.756,272.434,242.174,272.434,251.342z" fill="#5D9CEC"/><rect fill="#656D78" height="2.957" width="79.795" x="215.947" y="278.58"/><rect fill="#656D78" height="2.953" width="27.93" x="241.883" y="287.6"/></g><g><rect fill="#FFFFFF" height="79.785" width="116.25" x="60.211" y="222.463"/><path d="M134.924,251.342c0,9.16-7.43,16.586-16.588,16.586c-9.162,0-16.59-7.426-16.59-16.586     c0-9.168,7.428-16.586,16.59-16.586C127.494,234.756,134.924,242.174,134.924,251.342z" fill="#5D9CEC"/><rect fill="#656D78" height="2.957" width="79.791" x="78.439" y="278.58"/><rect fill="#656D78" height="2.953" width="27.924" x="104.373" y="287.6"/></g></g><g><path d="M256,91.148c-70.902,0-131.486,44.186-155.723,106.52c24.236,62.338,84.82,106.525,155.723,106.525    c70.906,0,131.484-44.188,155.723-106.525C387.484,135.334,326.906,91.148,256,91.148z" fill="#E8563F"/><circle cx="256" cy="197.668" fill="#F4F6F9" r="87.199"/><path d="M309,197.668c0,29.273-23.73,53.006-53,53.006s-53-23.732-53-53.006c0-29.268,23.73-53,53-53    S309,168.4,309,197.668z" fill="#303842"/><path d="M299.875,197.668c0,24.227-19.645,43.873-43.875,43.873s-43.873-19.646-43.873-43.873    c0-24.232,19.643-43.873,43.873-43.873S299.875,173.436,299.875,197.668z" fill="#424953"/><path d="M297.195,170.648c0,11.432-9.27,20.705-20.703,20.705c-11.438,0-20.711-9.273-20.711-20.705    c0-11.439,9.273-20.707,20.711-20.707C287.926,149.941,297.195,159.209,297.195,170.648z" fill="#F4F6F9"/></g></g></svg>