<?xml version="1.0" ?><!DOCTYPE svg  PUBLIC '-//W3C//DTD SVG 1.1//EN'  'http://www.w3.org/Graphics/SVG/1.1/DTD/svg11.dtd'><svg enable-background="new 0 0 512 512" height="512px" id="Слой_1" version="1.1" viewBox="0 0 512 512" width="512px" xml:space="preserve" xmlns="http://www.w3.org/2000/svg" xmlns:xlink="http://www.w3.org/1999/xlink"><g id="File_Sharing"><path d="M257.879,46.977c-97.773,0-177.031,79.262-177.031,177.035c0,97.77,79.258,177.031,177.031,177.031   s177.035-79.262,177.035-177.031C434.914,126.238,355.652,46.977,257.879,46.977z M368.625,334.75   c-29.586,29.578-68.91,45.875-110.746,45.875c-41.832,0-81.16-16.297-110.738-45.875c-29.582-29.578-45.875-68.906-45.875-110.738   c0-41.836,16.293-81.16,45.875-110.742c29.578-29.578,68.906-45.871,110.738-45.871c41.836,0,81.16,16.293,110.746,45.871   c29.574,29.582,45.867,68.906,45.867,110.742C414.492,265.844,398.199,305.172,368.625,334.75z" fill="#FECD57"/><g><rect fill="#F4F6F9" height="130.16" width="184.145" x="9.934" y="102.383"/><polygon fill="#E8563F" points="186.234,198.629 141.313,141.604 73.238,228.023 186.234,228.023   "/><polygon fill="#FB6D51" points="36.906,229.051 78.898,175.738 120.895,229.051   "/><path d="M70.566,141.783c0,11.295-9.152,20.455-20.445,20.455s-20.449-9.16-20.449-20.455    c0-11.293,9.156-20.447,20.449-20.447S70.566,130.49,70.566,141.783z" fill="#FECD57"/><path d="M193.898,91.664H7.605C3.426,91.664,0,95.09,0,99.277v136.945c0,4.188,3.426,7.605,7.605,7.605h186.293    c4.188,0,7.613-3.418,7.613-7.605V99.277C201.512,95.09,198.086,91.664,193.898,91.664z M184.012,226.33H17.5V109.17h166.512    V226.33z" fill="#E5E8EC"/></g><g><path d="M512,99.277c0-4.188-3.426-7.613-7.605-7.613H318.102c-4.188,0-7.613,3.426-7.613,7.613v136.945    c0,4.188,3.426,7.605,7.613,7.605h186.293c4.18,0,7.605-3.418,7.605-7.605V99.277z" fill="#E5E8EC"/><g><path d="M447.695,156.617c0,20.125-16.32,36.445-36.449,36.445c-20.133,0-36.445-16.32-36.445-36.445     c0-20.127,16.313-36.447,36.445-36.447C431.375,120.17,447.695,136.49,447.695,156.617z" fill="#EC5564"/><path d="M403.406,140.197c-0.832-0.521-1.512-0.141-1.512,0.846v34.508     c0,0.98,0.68,1.367,1.512,0.84l27.48-17.148c0.832-0.52,0.832-1.371,0-1.891L403.406,140.197z" fill="#F4F6F9" id="play_6_"/></g><rect fill="#EC5564" height="6.361" width="82.738" x="328.508" y="217.402"/><rect fill="#F4F6F9" height="6.361" width="82.734" x="411.246" y="217.402"/></g><g><path d="M358.633,320.465c0-4.184-3.418-7.602-7.605-7.602H164.734c-4.188,0-7.609,3.418-7.609,7.602v136.953    c0,4.184,3.422,7.605,7.609,7.605h186.293c4.188,0,7.605-3.422,7.605-7.605V320.465z" fill="#E5E8EC"/><rect fill="#FB6D51" height="3.926" width="82.738" x="175.141" y="411.984"/><rect fill="#F4F6F9" height="3.926" width="82.742" x="257.879" y="411.984"/><rect fill="#FB6D51" height="66.652" width="66.652" x="225.453" y="329.098"/><path d="M260.793,339.645L260.793,339.645h-3.5v31.277c-2.227-1.23-5.281-1.633-8.414-0.879    c-5.504,1.32-9.172,5.699-8.191,9.781c0.98,4.086,6.238,6.32,11.746,4.992c5.039-1.199,8.535-4.965,8.348-8.727h0.012v-25.578    c5.715,4.219,10.738,3.652,11.668,13.699C283.559,347.328,261.262,347.777,260.793,339.645z" fill="#F4F6F9" id="note_1_4_"/><path d="M273.055,438.684c0,7.859-6.375,14.234-14.234,14.234c-7.867,0-14.242-6.375-14.242-14.234    s6.375-14.238,14.242-14.238C266.68,424.445,273.055,430.824,273.055,438.684z" fill="#CBD0D8"/><path d="M302.039,438.684c0,5.676-4.598,10.273-10.277,10.273c-5.676,0-10.273-4.598-10.273-10.273    c0-5.672,4.598-10.281,10.273-10.281C297.441,428.402,302.039,433.012,302.039,438.684z" fill="#CBD0D8"/><path d="M236.148,438.684c0,5.676-4.602,10.273-10.273,10.273c-5.676,0-10.273-4.598-10.273-10.273    c0-5.672,4.598-10.281,10.273-10.281C231.547,428.402,236.148,433.012,236.148,438.684z" fill="#CBD0D8"/><g id="fast_forward_8_"><polygon fill="#4A5A67" points="297.586,439.656 292.66,436.578 292.66,439.656 292.66,442.738    "/><polygon fill="#4A5A67" points="292.66,439.656 287.727,436.578 287.727,442.738    "/></g><g id="fast_forward_7_"><polygon fill="#4A5A67" points="220.047,439.656 224.973,436.578 224.973,439.656 224.973,442.738    "/><polygon fill="#4A5A67" points="224.973,439.656 229.906,436.578 229.906,442.738    "/></g><g id="pause_4_"><rect fill="#4A5A67" height="9.734" width="3.57" x="253.898" y="434.676"/><rect fill="#4A5A67" height="9.734" width="3.566" x="260.066" y="434.676"/></g></g></g></svg>