<?xml version="1.0" ?><!DOCTYPE svg  PUBLIC '-//W3C//DTD SVG 1.1//EN'  'http://www.w3.org/Graphics/SVG/1.1/DTD/svg11.dtd'><svg enable-background="new 0 0 512 512" height="512px" id="Слой_1" version="1.1" viewBox="0 0 512 512" width="512px" xml:space="preserve" xmlns="http://www.w3.org/2000/svg" xmlns:xlink="http://www.w3.org/1999/xlink"><g id="Idea"><g><g><path d="M256.28,0h-0.57c-73.74,0.313-133.422,60.555-133.422,134.84c0,32.654,10.07,53.695,30.725,85.924     c11.213,17.502,24.77,25.229,32.02,79.252c2.736,20.379,14.5,25.379,14.5,25.379H312.46c0,0,11.766-5,14.5-25.379     c7.25-54.023,20.805-61.75,32.02-79.252c20.656-32.229,30.727-53.27,30.727-85.924C389.706,60.555,330.022,0.313,256.28,0z" fill="#F6BB42"/><polygon fill="#AAB2BD" points="325.608,385.324 255.995,421.496 186.382,385.324 186.382,379.004 194.505,365.207      186.382,353.621 194.505,340.102 186.382,328.242 186.382,307.168 325.608,307.168 325.608,315.875 317.491,329.313      325.608,341.25 317.491,355.012 325.608,366.633    "/><path d="M325.577,315.875c-0.469-5.254-5.109-9.137-10.359-8.668l-120.105,10.676     c-5.254,0.469-9.133,5.105-8.666,10.359c0.467,5.25,5.105,9.133,10.359,8.668l120.104-10.676     C322.163,325.766,326.042,321.125,325.577,315.875z" fill="#CCD1D9"/><path d="M325.577,341.25c-0.469-5.254-5.109-9.133-10.359-8.664l-120.105,10.68     c-5.254,0.465-9.133,5.102-8.666,10.355s5.105,9.137,10.359,8.668l120.104-10.68C322.163,351.148,326.042,346.508,325.577,341.25     z" fill="#CCD1D9"/><path d="M325.577,366.633c-0.469-5.258-5.109-9.137-10.359-8.664l-120.105,10.672     c-5.254,0.469-9.133,5.105-8.666,10.363c0.467,5.25,5.105,9.129,10.359,8.664l120.104-10.676     C322.163,376.523,326.042,371.887,325.577,366.633z" fill="#CCD1D9"/></g><path d="M294.546,126.174c-5.289,0-10.016,2.393-13.164,6.154c-3.152-3.762-7.875-6.154-13.164-6.154    s-10.016,2.393-13.164,6.154c0-0.004-0.008-0.008-0.008-0.012c-0.004,0.004-0.008,0.008-0.008,0.012    c-3.152-3.762-7.879-6.154-13.172-6.154c-5.281,0-10.008,2.393-13.16,6.154c-3.152-3.762-7.873-6.154-13.164-6.154    c-9.48,0-19.326,5.572-17.16,17.17l31.883,130.266v33.559h49.57v-33.605l31.867-130.219h0.016    C313.882,131.746,304.026,126.174,294.546,126.174z M238.276,264.898c0-9.25,7.527-16.773,16.773-16.773    c9.25,0,16.773,7.523,16.773,16.773H238.276z M276.671,252.789c-4.246-7.563-12.332-12.676-21.621-12.676    c-9.293,0-17.387,5.121-21.629,12.688l-27.158-110.973c-0.111-5.668,4.627-7.641,9.279-7.641c5.051,0,9.16,4.105,9.16,9.156    c0,2.211,1.805,4.008,4.02,4.008s3.996-1.891,3.996-4.105c0.051-5.002,4.141-9.059,9.148-9.059c5.055,0,9.164,4.105,9.164,9.156    c0,2.211,1.805,4.02,4.016,4.02s4.004-1.793,4.004-4.006c0-5.049,4.121-9.17,9.168-9.17c5.023,0,9.117,4.074,9.156,9.09    c0,2.213,1.785,4.074,4,4.074c2.211,0,4.008-1.797,4.008-4.008h0.004c0-5.051,4.109-9.156,9.16-9.156    c4.648,0,9.387,1.973,9.281,7.633L276.671,252.789z" fill="#FFCE54"/><path d="M183.446,70.008c-19.941,21.75-27.537,46.93-35.32,39.793s-1.627-31.971,18.311-53.717    c19.939-21.75,46.113-32.182,53.896-25.045S203.386,48.262,183.446,70.008z" fill="#FFCE54"/></g><g><g><rect fill="#CCD1D9" height="148.359" width="253.348" x="129.323" y="363.641"/><g><path d="M280.187,363.641c-4.102,0-14.145,0-24.191,0s-20.09,0-24.191,0c-9.445,0,10.871,46.359,10.871,46.359      h13.32h13.316C269.312,410,289.632,363.641,280.187,363.641z" fill="#ED5565"/><path d="M292.862,512c2.023-29.664-3.23-64.453-23.551-102l-13.316-1.148L242.675,410      c-20.318,37.547-25.572,72.336-23.545,102H292.862z" fill="#DA4453"/></g><path d="M255.991,363.641l-70.896-61.973c-27.17,42.34,9.75,100.684,9.75,100.684     C216.509,376.742,255.991,363.641,255.991,363.641z" fill="#E6E9ED"/><path d="M256.007,363.641l70.891-61.973c27.168,42.34-9.75,100.684-9.75,100.684     C295.483,376.742,256.007,363.641,256.007,363.641z" fill="#E6E9ED"/></g><g><path d="M306.351,512h156.914c-2.977-33.813-2.727-75.227-20.047-120.887     c-2.734-7.199-93.445-57.848-93.445-57.848C356.858,345.883,329.569,438.871,306.351,512z" fill="#434A54"/><path d="M205.642,512c-23.219-73.129-50.502-166.117-43.42-178.734c0,0-90.709,50.648-93.443,57.848     C51.456,436.773,51.71,478.188,48.735,512H205.642z" fill="#434A54"/><path d="M179.356,512h48.9c-42.168-137.898-51.752-188.801-51.752-188.801     c-12.355,8.016-45.512,32.813-44.75,39.297c0.768,6.484,11.83,22.895,11.83,22.895S120.046,401.609,121.573,410     C122.349,414.281,151.231,464.148,179.356,512z" fill="#656D78"/><path d="M332.636,512c28.121-47.852,57.004-97.719,57.785-102c1.527-8.391-22.012-24.609-22.012-24.609     s11.063-16.41,11.824-22.895c0.766-6.484-32.391-31.281-44.75-39.297c0,0-9.582,50.902-51.75,188.801H332.636z" fill="#656D78"/></g></g></g></svg>