<?xml version="1.0" ?><!DOCTYPE svg  PUBLIC '-//W3C//DTD SVG 1.1//EN'  'http://www.w3.org/Graphics/SVG/1.1/DTD/svg11.dtd'><svg enable-background="new 0 0 512 512" height="512px" id="Слой_1" version="1.1" viewBox="0 0 512 512" width="512px" xml:space="preserve" xmlns="http://www.w3.org/2000/svg" xmlns:xlink="http://www.w3.org/1999/xlink"><g id="Image_Search"><rect fill="#F4F6F9" height="262.283" width="371.065" x="20.015" y="124.278"/><polygon fill="#E8563F" points="375.26,318.232 284.748,203.319 147.581,377.459 375.26,377.459  "/><polygon fill="#FB6D51" points="74.362,379.525 158.981,272.092 243.604,379.525  "/><path d="M142.194,203.686c0,22.754-18.445,41.199-41.199,41.199c-22.76,0-41.201-18.445-41.201-41.199   c0-22.762,18.441-41.207,41.201-41.207C123.749,162.479,142.194,180.924,142.194,203.686z" fill="#FECD57"/><path d="M390.721,102.69H15.327c-8.434,0-15.326,6.895-15.326,15.328v275.96c0,8.43,6.893,15.328,15.326,15.328   h375.394c8.43,0,15.336-6.898,15.336-15.328v-275.96C406.057,109.584,399.15,102.69,390.721,102.69z M370.791,374.053H35.261   V137.952h335.53V374.053z" fill="#E5E8EC"/><g><path d="M417.955,286.959l93.641,93.566c1.875,1.867-2.965,9.734-10.793,17.574    c-7.832,7.832-15.691,12.68-17.566,10.809l-93.641-93.57L417.955,286.959z" fill="#303842"/><path d="M500.803,398.1c-7.832,7.832-15.691,12.68-17.566,10.809l-93.641-93.57l14.18-14.191L500.803,398.1z" fill="#434A54"/><path d="M389.596,315.338c1.875,1.867,9.734-2.965,17.566-10.813c7.832-7.832,12.66-15.707,10.793-17.566    c-1.867-1.875-9.727,2.965-17.559,10.813C392.564,305.604,387.729,313.471,389.596,315.338z" fill="#222930"/><g opacity="0.2"><path d="M241.894,275.244c37.542,37.516,98.39,37.488,135.901-0.059c37.516-37.542,37.504-98.386-0.043-135.902     c-37.547-37.52-98.398-37.492-135.909,0.047C204.323,176.877,204.349,237.725,241.894,275.244z" fill="#FFFFFF"/></g><path d="M384.697,262.084l29.07,29.055c0.836,0.824-2.965,5.98-8.484,11.508c-5.52,5.531-10.672,9.332-11.5,8.504    L364.697,282.1L384.697,262.084z" fill="#D7DCE0"/><path d="M377.752,139.284c-37.547-37.52-98.398-37.492-135.909,0.047c-37.52,37.547-37.494,98.395,0.051,135.914    c37.542,37.516,98.39,37.488,135.901-0.059C415.311,237.643,415.299,176.799,377.752,139.284z M372.408,269.807    c-16.699,16.711-38.922,25.93-62.559,25.945c-23.637,0.008-45.863-9.188-62.573-25.898c-16.719-16.71-25.934-38.929-25.947-62.554    c0-23.641,9.189-45.867,25.893-62.588c16.706-16.713,38.933-25.928,62.562-25.939c23.641-0.008,45.867,9.186,62.586,25.893    c16.711,16.713,25.93,38.928,25.934,62.561C398.314,230.858,389.123,253.092,372.408,269.807z" fill="#303842"/><path d="M405.283,302.646c-5.52,5.531-10.672,9.332-11.5,8.504L364.697,282.1l10.008-10.008L405.283,302.646z" fill="#E5E8EC"/><path d="M339.682,284.572c0.254-0.246,0.547-0.434,0.859-0.563c0.008,0,0.016-0.004,0.027-0.012    c10.254-4.105,19.66-10.293,27.691-18.332h0.008l0,0c8.039-8.047,14.215-17.46,18.309-27.714c0.004-0.008,0.012-0.02,0.02-0.027    c0.121-0.305,0.305-0.598,0.563-0.859c0.992-0.992,2.598-0.992,3.594,0l7.602,7.609c-4.672,11.086-11.523,21.476-20.559,30.511    l0,0l0,0c-9.027,9.039-19.41,15.895-30.5,20.594l-7.613-7.613C338.697,287.178,338.689,285.564,339.682,284.572z" fill="#434A54"/><path d="M313.568,154.598c-2.832-0.354-5.715-0.553-8.641-0.553    c-38.125,0-69.026,30.898-69.026,69.02h17.28C253.182,187.872,279.529,158.85,313.568,154.598z" fill="#FFFFFF" opacity="0.5"/></g></g></svg>