<?xml version="1.0" ?><!DOCTYPE svg  PUBLIC '-//W3C//DTD SVG 1.1//EN'  'http://www.w3.org/Graphics/SVG/1.1/DTD/svg11.dtd'><svg enable-background="new 0 0 512 512" height="512px" id="Слой_1" version="1.1" viewBox="0 0 512 512" width="512px" xml:space="preserve" xmlns="http://www.w3.org/2000/svg" xmlns:xlink="http://www.w3.org/1999/xlink"><g id="Money_Saving"><path d="M455.875,195.119c0,0,53.094,25.906,2.227,53l15.102,43.766   C569.66,216.238,455.875,195.119,455.875,195.119z" fill="#D670AC"/><path d="M66.344,220.852l-58.277,9.693l-0.01,0.012C3.491,231.311,0,235.264,0,240.053l0,0v105.395l0,0v0.004   c0,4.676,3.32,8.559,7.73,9.449l58.613,9.75V220.852z" fill="#D670AC"/><path d="M194.118,125.744C144.02,68.786,64.167,98.172,64.167,98.172l38.373,85.299   C102.54,183.471,244.211,182.705,194.118,125.744z" fill="#EB87BF"/><path d="M227.491,427.143h-97.938l-5.816,57.023c-0.084,0.645-0.141,1.297-0.141,1.965   c0,8.52,6.908,15.426,15.428,15.426h66.893c7.9,0,14.4-5.941,15.307-13.598L227.491,427.143z" fill="#D670AC"/><path d="M301.816,431.506l96.473-18.148l7.277,75.16c0.082,0.648,0.141,1.301,0.141,1.969   c0,8.516-6.906,15.422-15.426,15.422h-66.895c-7.895,0-14.402-5.938-15.309-13.59L301.816,431.506z" fill="#D670AC"/><ellipse cx="261.293" cy="292.752" fill="#EB87BF" rx="212.926" ry="177.906"/><path d="M155.006,229.619c0,9.211-7.467,16.68-16.676,16.68c-9.211,0-16.678-7.469-16.678-16.68   c0-9.207,7.467-16.674,16.678-16.674C147.54,212.945,155.006,220.412,155.006,229.619z" fill="#424953"/><path d="M370.305,150.672c0.18,19.826-44.418,0.76-96.773,1.227c-52.351,0.467-92.634,20.299-92.81,0.473   c-0.182-19.834,42.613-28.68,94.966-29.146C328.039,122.758,370.133,130.846,370.305,150.672z" fill="#D670AC"/><g><rect fill="#A0D468" height="138.033" width="148.169" x="199.846" y="6.092"/><path d="M232.438,144.125v-0.006c0-22.914,18.578-41.488,41.507-41.488c22.914,0,41.48,18.574,41.48,41.488v0.006    h17.582V36.1c-8.285,0-15-6.723-15-15.008h-88.15c0,8.285-6.717,15.008-15.004,15.008v108.025H232.438z" fill="#8CC152"/></g></g></svg>