<?xml version="1.0" ?><!DOCTYPE svg  PUBLIC '-//W3C//DTD SVG 1.1//EN'  'http://www.w3.org/Graphics/SVG/1.1/DTD/svg11.dtd'><svg enable-background="new 0 0 512 512" height="512px" id="Слой_1" version="1.1" viewBox="0 0 512 512" width="512px" xml:space="preserve" xmlns="http://www.w3.org/2000/svg" xmlns:xlink="http://www.w3.org/1999/xlink"><g id="Management"><g><g><path d="M256.001,223.013c-46.508,0-84.346-37.832-84.346-84.34c0-46.512,37.838-84.346,84.346-84.346     c46.504,0,84.344,37.834,84.344,84.346C340.345,185.181,302.505,223.013,256.001,223.013z" fill="#F4F6F9"/></g><polygon fill="#F6BB42" points="275.438,176.601 237.11,176.286 236.075,154.048 275.802,155.161   "/><path d="M293.571,114.321c1.598,23.094-14.148,47.688-35.188,49.146c-21.031,1.467-39.375-20.768-40.98-43.867    c-1.602-23.1,14.148-43.014,35.184-44.475C273.618,73.673,291.966,91.214,293.571,114.321z" fill="#FECD57"/><path d="M213.243,205.755c12.484,7.566,27.117,11.934,42.758,11.934c15.523,0,30.07-4.309,42.492-11.781v-29.92    h-85.25V205.755z" fill="#CCD1D9"/><path d="M264.009,175.987c-1.383,0-4.766,0-8.141,0c-3.383,0-6.758,0-8.141,0c-3.18,0,3.656,15.6,3.656,15.6h4.484    h4.48C260.349,191.587,267.188,175.987,264.009,175.987z" fill="#ED5565"/><path d="M256.001,217.688c4.133,0,8.195-0.309,12.172-0.902c-0.68-7.738-2.969-16.232-7.824-25.199l-4.48-0.387    l-4.484,0.387c-4.844,8.947-7.133,17.426-7.82,25.168C247.618,217.368,251.774,217.688,256.001,217.688z" fill="#DA4453"/><path d="M255.868,175.987l-19.676-18.314c-9.141,14.248-0.902,31.34-0.902,31.34    C242.579,180.394,255.868,175.987,255.868,175.987z" fill="#E6E9ED"/><path d="M199.802,181.374c-1.363,3.6-2.396,7.34-3.203,11.088c10.566,10.918,24.107,18.938,39.301,22.752    c-5.68-22.453-8.066-46.986-6.016-50.639C229.884,164.575,200.722,178.954,199.802,181.374z" fill="#434A54"/><path d="M218.649,175.421c0.256,2.18,4.367,8.986,4.367,8.986s-8.117,5.781-7.604,8.605    c0.182,1.008,4.783,8.914,10.791,19.121c5.609,2.174,11.516,3.754,17.645,4.66c-11.262-39.652-9.703-55.26-9.703-55.26    C229.989,164.228,218.392,173.239,218.649,175.421z" fill="#656D78"/><path d="M256.134,175.987l19.672-18.314c9.141,14.248,0.902,31.34,0.902,31.34    C269.419,180.394,256.134,175.987,256.134,175.987z" fill="#E6E9ED"/><path d="M315.399,192.462c-0.805-3.748-1.836-7.488-3.203-11.088c-0.922-2.42-30.125-16.834-30.125-16.834    c2.047,3.648-0.305,28.215-5.977,50.674C291.29,211.407,304.833,203.38,315.399,192.462z" fill="#434A54"/><path d="M288.981,184.407c0,0,4.113-6.807,4.367-8.986c0.258-2.182-11.336-11.193-15.496-13.887    c0,0,1.555,15.607-9.699,55.26c6.121-0.906,12.027-2.486,17.645-4.66c6.004-10.207,10.605-18.113,10.789-19.121    C297.099,190.188,288.981,184.407,288.981,184.407z" fill="#656D78"/><path d="M256.001,48.167c-49.982,0-90.502,40.521-90.502,90.506c0,49.98,40.52,90.5,90.502,90.5    c49.977,0,90.5-40.52,90.5-90.5C346.501,88.688,305.978,48.167,256.001,48.167z M256.001,216.86    c-43.115,0-78.189-35.074-78.189-78.188s35.074-78.186,78.189-78.186c43.109,0,78.188,35.072,78.188,78.186    S299.11,216.86,256.001,216.86z" fill="#424953"/></g><g><g><path d="M256.001,458.06c-36.555,0-66.295-29.734-66.295-66.293c0-36.551,29.74-66.285,66.295-66.285     c36.551,0,66.289,29.734,66.289,66.285C322.29,428.325,292.552,458.06,256.001,458.06z" fill="#F4F6F9"/></g><polygon fill="#F6BB42" points="271.063,421.595 240.548,421.341 239.728,404.009 271.356,404.907   "/><path d="M285.501,372.372c1.273,18.395-11.262,37.977-28.012,39.141c-16.746,1.16-31.355-16.539-32.629-34.93    c-1.277-18.395,11.262-34.242,28.012-35.41C269.61,340.013,284.228,353.974,285.501,372.372z" fill="#FECD57"/><path d="M256.001,458.513c16.891,0,32.297-6.344,43.969-16.785c-0.492-5.676-1.445-11.547-3.477-16.879    c-0.727-1.93-24.383-12.406-24.383-12.406c0.609,1.07,0.703,4.445,0.359,9.152h-33.766c-0.344-4.707-0.246-8.082,0.359-9.152    c0,0-23.65,10.477-24.385,12.406c-1.939,5.117-2.891,10.734-3.402,16.199C223.036,451.888,238.743,458.513,256.001,458.513z" fill="#D94452"/><path d="M261.228,421.415c-1.023,0-3.539,0-6.047,0c-2.512,0-5.023,0-6.047,0c-2.367,0,2.715,11.594,2.715,11.594    h3.332h3.332C258.513,433.009,263.595,421.415,261.228,421.415z" fill="#F4F6F9"/><path d="M264.399,458.513c0.508-7.418-0.805-16.113-5.887-25.504l-3.332-0.289l-3.332,0.289    c-5.082,9.391-6.395,18.086-5.887,25.504H264.399z" fill="#E5E8EC"/><path d="M255.481,421.474l-15.66-14.578c-7.281,11.344-0.723,24.953-0.723,24.953    C244.907,424.981,255.481,421.474,255.481,421.474z" fill="#EC5564"/><path d="M255.696,421.474l15.664-14.578c7.273,11.344,0.715,24.953,0.715,24.953    C266.274,424.981,255.696,421.474,255.696,421.474z" fill="#EC5564"/><path d="M256.001,319.708c-39.803,0-72.064,32.258-72.064,72.059c0,39.809,32.262,72.066,72.064,72.066    c39.797,0,72.063-32.258,72.063-72.066C328.063,351.966,295.798,319.708,256.001,319.708z M256.001,452.294    c-33.375,0-60.521-27.148-60.521-60.527c0-33.367,27.146-60.52,60.521-60.52c33.371,0,60.516,27.152,60.516,60.52    C316.517,425.146,289.372,452.294,256.001,452.294z" fill="#424953"/></g><polygon fill="#424953" points="261.802,286.974 261.802,226.521 250.196,226.521 250.196,286.974 238.872,286.974    256.001,304.228 273.126,286.974  "/><polygon fill="#424953" points="369.028,252.72 367.099,228.481 359.716,237.083 313.868,197.681 306.298,206.487 352.157,245.88    344.774,254.466  "/><g><g><path d="M439.938,373.114c-36.555,0-66.293-29.742-66.293-66.293c0-36.559,29.738-66.293,66.293-66.293     c36.551,0,66.289,29.734,66.289,66.293C506.228,343.372,476.489,373.114,439.938,373.114z" fill="#F4F6F9"/></g><polygon fill="#F6BB42" points="455.001,336.642 424.485,336.388 423.665,319.052 455.29,319.954   "/><path d="M469.438,287.419c1.273,18.395-11.266,37.977-28.008,39.141c-16.75,1.16-31.359-16.531-32.633-34.934    c-1.281-18.387,11.266-34.238,28.012-35.406C453.552,255.06,468.165,269.021,469.438,287.419z" fill="#FECD57"/><path d="M439.938,373.56c16.891,0,32.297-6.344,43.969-16.785c-0.492-5.676-1.445-11.547-3.477-16.879    c-0.727-1.93-24.383-12.406-24.383-12.406c0.609,1.078,0.703,4.445,0.367,9.152h-33.773c-0.344-4.707-0.242-8.074,0.363-9.152    c0,0-23.656,10.477-24.387,12.406c-1.938,5.117-2.891,10.73-3.406,16.199C406.97,366.935,422.681,373.56,439.938,373.56z" fill="#CCD1D9"/><path d="M439.423,336.528l-15.664-14.586c-7.281,11.344-0.719,24.953-0.719,24.953    C428.845,340.036,439.423,336.528,439.423,336.528z" fill="#E5E8EC"/><path d="M439.634,336.528l15.664-14.586c7.273,11.344,0.715,24.953,0.715,24.953    C450.212,340.036,439.634,336.528,439.634,336.528z" fill="#E5E8EC"/><path d="M441.368,347.954c0,0.961-0.773,1.738-1.734,1.738s-1.738-0.777-1.738-1.738    c0-0.953,0.777-1.734,1.738-1.734S441.368,347.001,441.368,347.954z" fill="#646C77"/><path d="M441.368,360.228c0,0.953-0.773,1.734-1.734,1.734s-1.738-0.781-1.738-1.734    c0-0.961,0.777-1.738,1.738-1.738S441.368,359.267,441.368,360.228z" fill="#646C77"/><path d="M439.938,234.755c-39.797,0-72.063,32.266-72.063,72.066s32.266,72.059,72.063,72.059    s72.063-32.258,72.063-72.059S479.735,234.755,439.938,234.755z M439.938,367.341c-33.375,0-60.523-27.148-60.523-60.52    c0-33.375,27.148-60.527,60.523-60.527c33.371,0,60.523,27.152,60.523,60.527C500.462,340.192,473.31,367.341,439.938,367.341z" fill="#424953"/></g><polygon fill="#424953" points="205.698,206.487 198.132,197.681 152.282,237.083 144.899,228.481 142.97,252.72 167.222,254.466    159.843,245.88  "/><g><g><path d="M72.06,373.114c36.557,0,66.293-29.742,66.293-66.293c0-36.559-29.736-66.293-66.293-66.293     c-36.551,0-66.291,29.734-66.291,66.293C5.769,343.372,35.509,373.114,72.06,373.114z" fill="#F4F6F9"/></g><polygon fill="#F6BB42" points="56.995,336.642 87.513,336.388 88.335,319.052 56.706,319.954   "/><path d="M42.56,287.419c-1.273,18.395,11.264,37.977,28.014,39.141c16.742,1.16,31.352-16.531,32.629-34.934    c1.277-18.387-11.266-34.238-28.01-35.406C58.446,255.06,43.835,269.021,42.56,287.419z" fill="#FECD57"/><path d="M72.062,373.56c-16.893,0-32.299-6.344-43.973-16.785c0.496-5.676,1.449-11.547,3.477-16.879    c0.727-1.93,24.383-12.406,24.383-12.406c-0.604,1.078-0.703,4.445-0.363,9.152h33.771c0.342-4.707,0.242-8.074-0.363-9.152    c0,0,23.656,10.477,24.387,12.406c1.939,5.117,2.893,10.73,3.406,16.199C105.026,366.935,89.319,373.56,72.062,373.56z" fill="#4B89DA"/><path d="M72.575,336.528l15.664-14.586c7.279,11.344,0.721,24.953,0.721,24.953    C83.155,340.036,72.575,336.528,72.575,336.528z" fill="#5E9CEA"/><path d="M72.366,336.528l-15.664-14.586c-7.277,11.344-0.717,24.953-0.717,24.953    C61.786,340.036,72.366,336.528,72.366,336.528z" fill="#5E9CEA"/><path d="M70.63,347.954c0,0.961,0.775,1.738,1.736,1.738c0.959,0,1.736-0.777,1.736-1.738    c0-0.953-0.777-1.734-1.736-1.734C71.405,346.22,70.63,347.001,70.63,347.954z" fill="#5E9CEA"/><path d="M70.63,360.228c0,0.953,0.775,1.734,1.736,1.734c0.959,0,1.736-0.781,1.736-1.734    c0-0.961-0.777-1.738-1.736-1.738C71.405,358.489,70.63,359.267,70.63,360.228z" fill="#5E9CEA"/><path d="M72.06,234.755c-39.797,0-72.061,32.266-72.061,72.066S32.263,378.88,72.06,378.88    c39.799,0,72.066-32.258,72.066-72.059S111.858,234.755,72.06,234.755z M72.06,367.341c-33.367,0-60.521-27.148-60.521-60.52    c0-33.375,27.154-60.527,60.521-60.527c33.373,0,60.525,27.152,60.525,60.527C132.585,340.192,105.433,367.341,72.06,367.341z" fill="#424953"/></g></g></svg>