<?xml version="1.0" ?><!DOCTYPE svg  PUBLIC '-//W3C//DTD SVG 1.1//EN'  'http://www.w3.org/Graphics/SVG/1.1/DTD/svg11.dtd'><svg enable-background="new 0 0 512 512" height="512px" id="Слой_1" version="1.1" viewBox="0 0 512 512" width="512px" xml:space="preserve" xmlns="http://www.w3.org/2000/svg" xmlns:xlink="http://www.w3.org/1999/xlink"><g id="App"><g><path d="M310.781,467.652c0,5.355-4.336,9.703-9.695,9.703H45.422c-5.352,0-9.695-4.348-9.695-9.703V22.373    c0-5.359,4.344-9.693,9.695-9.693h255.664c5.359,0,9.695,4.334,9.695,9.693V467.652z" fill="#303842"/><path d="M310.781,454.973c0,5.352-4.336,9.703-9.695,9.703H45.422c-5.352,0-9.695-4.352-9.695-9.703V9.693    C35.727,4.334,40.07,0,45.422,0h255.664c5.359,0,9.695,4.334,9.695,9.693V454.973z" fill="#424953"/><rect fill="#967ADA" height="299.641" width="229.605" x="58.453" y="78.801"/><path d="M195.133,422.902c0,12.086-9.797,21.879-21.875,21.879c-12.086,0-21.883-9.793-21.883-21.879    c0-12.082,9.797-21.883,21.883-21.883C185.336,401.02,195.133,410.82,195.133,422.902z" fill="#646C77"/><path d="M219,31.82c0,3.867-3.133,7-7.004,7h-77.484c-3.863,0-7.004-3.133-7.004-7l0,0c0-3.867,3.141-7,7.004-7    h77.484C215.867,24.82,219,27.953,219,31.82L219,31.82z" fill="#303842"/><rect fill="#303842" height="18.387" width="229.605" x="58.453" y="60.414"/><path d="M133.922,143.668c0,6.939-5.629,12.566-12.57,12.566H92.953c-6.941,0-12.57-5.627-12.57-12.566v-28.402    c0-6.939,5.629-12.566,12.57-12.566h28.398c6.941,0,12.57,5.627,12.57,12.566V143.668z" fill="#FB6D51"/><path d="M200.023,143.668c0,6.939-5.629,12.566-12.566,12.566h-28.398c-6.945,0-12.566-5.627-12.566-12.566    v-28.402c0-6.939,5.621-12.566,12.566-12.566h28.398c6.938,0,12.566,5.627,12.566,12.566V143.668z" fill="#4FC0E8"/><path d="M266.125,143.668c0,6.939-5.629,12.566-12.566,12.566h-28.402c-6.941,0-12.57-5.627-12.57-12.566v-28.402    c0-6.939,5.629-12.566,12.57-12.566h28.402c6.938,0,12.566,5.627,12.566,12.566V143.668z" fill="#9ED36A"/><path d="M133.922,209.773c0,6.934-5.629,12.566-12.57,12.566H92.953c-6.941,0-12.57-5.633-12.57-12.566v-28.406    c0-6.941,5.629-12.566,12.57-12.566h28.398c6.941,0,12.57,5.625,12.57,12.566V209.773z" fill="#AC92EA"/><path d="M200.023,209.773c0,6.934-5.629,12.566-12.566,12.566h-28.398c-6.945,0-12.566-5.633-12.566-12.566    v-28.406c0-6.941,5.621-12.566,12.566-12.566h28.398c6.938,0,12.566,5.625,12.566,12.566V209.773z" fill="#EC5564"/><path d="M266.125,209.773c0,6.934-5.629,12.566-12.566,12.566h-28.402c-6.941,0-12.57-5.633-12.57-12.566v-28.406    c0-6.941,5.629-12.566,12.57-12.566h28.402c6.938,0,12.566,5.625,12.566,12.566V209.773z" fill="#EB87BF"/><path d="M133.922,275.867c0,6.945-5.629,12.574-12.57,12.574H92.953c-6.941,0-12.57-5.629-12.57-12.574v-28.395    c0-6.939,5.629-12.566,12.57-12.566h28.398c6.941,0,12.57,5.627,12.57,12.566V275.867z" fill="#FECD57"/><path d="M133.922,341.973c0,6.941-5.629,12.566-12.57,12.566H92.953c-6.941,0-12.57-5.625-12.57-12.566v-28.398    c0-6.941,5.629-12.566,12.57-12.566h28.398c6.941,0,12.57,5.625,12.57,12.566V341.973z" fill="#9ED36A"/><path d="M200.023,341.973c0,6.941-5.629,12.566-12.566,12.566h-28.398c-6.945,0-12.566-5.625-12.566-12.566    v-28.398c0-6.941,5.621-12.566,12.566-12.566h28.398c6.938,0,12.566,5.625,12.566,12.566V341.973z" fill="#4FC0E8"/><path d="M266.125,341.973c0,6.941-5.629,12.566-12.566,12.566h-28.402c-6.941,0-12.57-5.625-12.57-12.566v-28.398    c0-6.941,5.629-12.566,12.57-12.566h28.402c6.938,0,12.566,5.625,12.566,12.566V341.973z" fill="#FB6D51"/></g><g><path d="M358.605,222.926c-6.063-10.359-18.184-14.545-27.082-9.34c-8.898,5.207-11.195,17.828-5.133,28.188    l9.008,15.406l-3.832,2.24l-14.402-24.627c-6.063-10.359-18.191-14.539-27.086-9.34c-8.898,5.207-11.195,17.82-5.137,28.188    l14.41,24.629l-3.727,2.18l-22.582-38.615c-5.992-10.24-17.906-14.439-26.777-9.514c-0.406,0.199-0.813,0.406-1.207,0.633    c-8.895,5.215-11.195,17.828-5.137,28.193l22.613,38.654l-3.844,2.246l-61-104.287c-6.059-10.359-18.188-14.539-27.082-9.334    c-8.895,5.201-11.195,17.82-5.141,28.182l80.555,137.725l-22.313-11.133c-11.801-5.879-24.551-0.891-28.492,11.141    c-3.934,12.031,2.438,26.563,14.234,32.441l104.559,52.145l17.957,23.234l3.352-2.32c3.625,4.086,5.852,7.781,10.102,5.301    l90.793-53.105c0,0,0.008-0.016,0.02-0.035c0.074-0.039,0.148-0.066,0.219-0.105c4.07-2.383,5.648-7.555,4.207-12.516    c-0.02-0.086-3.594,1.707-3.613,1.629c-5.988-20.641-17.715-73.574-27.996-93.152    C400.242,291.082,358.605,222.926,358.605,222.926z" fill="#FECD57"/><rect fill="#E5E8EC" height="56.673" transform="matrix(0.8632 -0.5048 0.5048 0.8632 -165.6217 255.3585)" width="135.72" x="320.566" y="404.98"/><polygon fill="#424953" points="476.273,438.207 350.094,512 323.176,465.98 449.359,392.188   "/><path d="M450.309,422.441c1.844,3.145,0.777,7.191-2.367,9.031c-3.148,1.84-7.191,0.781-9.027-2.367    c-1.84-3.152-0.789-7.191,2.363-9.031C444.426,418.234,448.469,419.293,450.309,422.441z" fill="#FECD57"/><rect fill="#646C77" height="53.312" transform="matrix(-0.8632 0.5048 -0.5048 -0.8632 1068.1099 543.8406)" width="5.362" x="457.7" y="389.961"/><polygon fill="#F4F6F9" points="439.98,397.676 444.609,394.961 432.699,374.598 428.07,377.309   "/></g></g></svg>