<?xml version="1.0" ?><!DOCTYPE svg  PUBLIC '-//W3C//DTD SVG 1.1//EN'  'http://www.w3.org/Graphics/SVG/1.1/DTD/svg11.dtd'><svg enable-background="new 0 0 512 512" height="512px" id="Слой_1" version="1.1" viewBox="0 0 512 512" width="512px" xml:space="preserve" xmlns="http://www.w3.org/2000/svg" xmlns:xlink="http://www.w3.org/1999/xlink"><g id="Local_Search"><g><path d="M442.438,325.566C442.438,428.535,358.965,512,256,512S69.563,428.535,69.563,325.566    c0-102.967,83.473-186.439,186.438-186.439S442.438,222.6,442.438,325.566z" fill="#3BAED9"/><g><path d="M278.48,252.387c0.207,0.027,0.387-0.148,0.594-0.148c0.621-0.031,2.621,1.336,3.301,1.602     c0.207,0.121,0.449,0.152,0.656,0.273c0.387,0.234,0.684,0.621,1.098,0.832c0.121,0.055,0.359,0.148,0.684,0.09     c0.238-0.035,0.598-0.09,0.953-1.309c0.148-0.48-0.414-0.719-0.355-1.191c0.09-0.688,0.625-1.195,0.738-1.844     c0.063-0.297-0.027-0.477-0.297-0.504c-0.055,0-0.086,0-0.113,0c-0.18,0.027-0.328,0.145-0.508,0.172     c-0.594,0.059-0.535-0.207-1.043,0.094c-0.238,0.145-0.473,0.328-0.77,0.418c-0.301,0.055-0.539-0.125-0.836-0.09     c-0.387,0.027-0.652,0.445-1.039,0.41c-0.563,0-0.922-0.473-1.43-0.559c-0.324-0.059-0.535,0.293-0.828,0.266     c-0.328-0.027-0.242-0.152-0.508-0.238c-0.387-0.121-0.863,1.34-0.773,1.461c0.121,0.234,0.328,0.266,0.445,0.266     C278.449,252.387,278.449,252.387,278.48,252.387z" fill="#B0E269"/><path d="M236.73,193.207c-0.043,0.066-0.09,0.119-0.117,0.18c-0.063,0.121-0.035,0.273,0.086,0.359     c0.121,0.061,0.27,0.027,0.359-0.059c0.117-0.121,0.27-0.301,0.445-0.508c0.164-0.207,0.223-0.266,0.477-0.387     c0.191-0.086,0.387-0.18,0.594-0.234c0.074-0.031,0.164,0,0.234,0.027c0.063,0.061,0.09,0.148,0.09,0.207     c-0.012,0.48,0.137,0.98-0.324,1.34c-0.266,0.24-0.477,0.387-0.641,0.535c-0.164,0.117-0.195,0.359-0.105,0.531     c0.094,0.18,0.297,0.273,0.508,0.215c0,0,0,0,0.016,0.025c0.016,0,0.043,0.033,0.043,0.061c0.117,0.533,0.148,0.533,0.863,0.094     c0.031,0,0.059,0,0.09,0c0,0,0.027,0,0.027,0.027c0.094,0.18,0.27,0.324,0.445,0.412c0.281,0.154,0.492,0.42,0.555,0.713     c0,0.035,0.012,0.035,0.012,0.061c0,0,0,0.033,0.016,0.061c0.254,0.746,0.043,1.578-0.52,2.146     c-0.566,0.561-1.398,0.74-2.156,0.5h-0.016c-0.121-0.027-0.254,0-0.328,0.119c-0.086,0.121-0.074,0.24,0.016,0.359     c0.074,0.088,0.164,0.18,0.164,0.293c-0.027,0.475-0.625,0.301-0.801,0.621c-0.016,0.033-0.031,0.066-0.031,0.094     c0,0.059,0.031,0.121,0.059,0.152c0.063,0.061,0.117,0.061,0.18,0.061c0.266-0.061,0.488-0.307,0.77-0.334     c0.539-0.025,0.152,1.34-0.027,1.555c-0.207,0.207-1.578,0.68-2.023,0.773c-0.266,0.027-0.457,0.053-0.563,0.141     c-0.09,0.092-0.137,0.686,0.25,0.865c0.582,0.268,1.148-0.24,1.711-0.092c0.563,0.152,1.059,0.445,1.445,0.865     c0.043,0.033,0.07,0.061,0.117,0.088c0.191,0.059,0.402,0.059,0.59-0.027c0.051-0.027,0.094-0.027,0.137-0.061     c0.148-0.154,0.297-0.205,0.477-0.205c0.121,0,0.238,0.086,0.285,0.205c0.043,0.119,0,0.24-0.105,0.326     c-0.43,0.293-0.859,0.602-1.457,0.535c-0.313-0.027-0.629-0.027-0.949,0c-0.969,0.086-1.891,0.539-2.59,1.252     c-0.234,0.232-0.492,0.475-0.715,0.713c-0.117,0.113-0.133,0.328-0.031,0.441c0.121,0.152,0.297,0.18,0.449,0.094     c0.117-0.063,0.223-0.154,0.355-0.207c0.418-0.268,1.176-0.566,1.594,0.232h0.012c0.063,0,0.133,0,0.176-0.025     c0.57-0.422,0.863-1.221,1.668-1.281c0.598-0.059,1.043,0.508,1.637,0.387c0.672-0.121,1.219-0.652,1.965-0.621     c0.266,0.027,1.008,0.234,1.082,0.268c0.195,0.113,0.195,0.113,1.293,0.146c0.449,0,0.789,0.387,1.219,0.447     c0.535,0.088,1.012-0.24,1.547-0.18c0.031,0,1.578-0.301,1.543-0.955v-0.025h-0.023c-0.551-0.326-0.926-0.928-0.98-1.547     c-0.016-0.061,0.012-0.088,0.055-0.088c0.063-0.031,0.121-0.031,0.152,0c0.027,0.027,0.059,0.063,0.09,0.088     c0.18,0.119,0.277,0.119,0.355,0.088c0.352-0.268,0.77-0.535,1.156-0.742c0.211-0.119,0.344-0.387,0.48-0.859     c0.027-0.125,0.164-0.893-0.777-1.398l-0.027-0.035c-0.063-0.025-1.84-0.953-2.336-0.645c-0.34,0.139-0.34,0.139-0.938-0.154     c-0.027-0.088,0-0.182,0.078-0.24c0.695-0.533,0.695-0.561,0.684-0.715c-0.031-0.324-0.195-0.566-0.402-0.799     c-0.18-0.18-0.195-0.473-0.043-0.686h0.016c0.117-0.18-0.566-1.668-0.582-1.695c-0.047-0.025-0.074-0.059-0.164-0.059     c-0.297,0.033-0.609,0.033-0.891,0.033c-0.043,0-0.09,0-0.168,0c-0.012,0-0.012,0-0.012,0c-0.016-0.033-0.031-0.061-0.016-0.094     c0.105-0.359-0.27-0.592-0.297-0.953c-0.027-0.326,0.059-0.68,0.09-1.006c0.027-0.301,0-0.654-0.105-0.988     c-0.344-1.186-0.297-2.465,0.133-3.625c0.195-0.5,0.434-0.947,0.73-1.367c0.699-0.947-2.406-0.834-3.004-0.801     c-0.047,0-0.09-0.033-0.117-0.059c-0.016-0.061-0.016-0.088,0-0.148c0.16-0.213,0.18-0.506,0.387-0.719     c0.297-0.234,0.684-0.328,1.008-0.535c0.715-0.445,0.121-0.711-0.145-0.799c-0.625-0.146-1.281-0.24-1.934-0.24     c-0.238,0-0.492,0.035-0.746,0.121c-0.16,0.059-0.355,0.266-0.535,0.531c-0.398,0.568-0.859,1.016-1.398,1.428     c-0.016,0.033-0.043,0.061-0.07,0.094c-0.137,0.088-0.344,0.119-0.496,0.025c-0.09-0.025-0.207-0.025-0.297,0     c-0.027,0.035-0.043,0.035-0.055,0.063c-0.18,0.092-0.328,0.205-0.422,0.387c-0.113,0.18-0.086,0.445,0.066,0.592     c0.16,0.182,0.41,0.207,0.605,0.119h0.012c0.02,0.063,0.02,0.148-0.012,0.207c-0.105,0.242-0.148,0.541-0.25,0.809     c-0.016,0.025-0.035,0.025-0.059,0.025c-0.063,0.025-0.109,0-0.137-0.025c-0.133-0.207-0.191-0.207-0.285-0.207     c0,0-0.027,0-0.027,0.025c-0.371,0.061-0.625,0.928-0.625,1.188c0.016,0.092,0.027,0.154,0.09,0.18     C237.117,191.84,237.148,192.613,236.73,193.207z" fill="#B0E269"/><path d="M227.672,203.473c0.805-0.359,1.551-0.832,2.395-1.074h0.016c1.18-0.324,2.188,0,2.527-0.445     c0.344-0.445,0.938-1.219,1.207-1.873c0.117-0.299-0.211-0.74,0.207-0.98c0.477-0.268,0.059-0.746,0.18-1.1     c0.328-0.953,0.535-0.98,0.922-1.039c0.375-0.063,0.711-0.094,0.832-0.301c0.621-0.895-1.516-3.42-2.855-3.094     c-1.367,0.359-2.48,2.379-2.945,2.348c-0.594-0.027-0.859-0.061-1.246,0.273c-0.301,0.207-0.344,0.594-0.566,0.893     c-0.266,0.318-0.609,0.588-0.891,0.92c-0.211,0.293-0.297,0.533,0.016,0.801c0.234,0.213,0.371,0.326-0.313,1.219     c-0.566,0.715-1.516,1.133-1.902,2.02c-0.152,0.334-0.121,0.98-0.09,1.221C225.355,204.213,226.797,203.826,227.672,203.473z" fill="#B0E269"/><g><path d="M129.113,188.986c1.391,0.041,3.605,0.4,4.344-0.205c0.773-0.629-0.207-0.836,0.238-1.521      c0.43-0.619,0.801-1.307,1.098-2.02c0.242-0.619,0.984-0.801,1.547-1.127c0.953-0.594,0.031-0.594-0.145-0.895      c-0.055-0.092-0.07-0.258-0.047-0.453C133.75,184.781,131.402,186.854,129.113,188.986z" fill="#B0E269"/><path d="M119.359,437.105c0.152-0.297,1.371-0.445,2.828,0.594c1.172,0.809,2.852-1.102,2.691-1.785      c-0.48-2.141-0.492-2.5-0.223-4.461c0.457-3.324-0.445-11.629-0.848-12.727c-0.227-0.629-0.371-1.246-0.449-1.867      c-0.074-0.66-0.102-1.277-0.074-1.879c0.566,7.379,0.566-7.848,3.957-10.582c0.359-0.598,0.715-1.191,1.07-1.785      c1.785-3.031,3.449-6.039,3.316-7.055c-0.582-4.547-15.047-21.141-19.152-24.199c-3.223-2.441-6.168-6.488-7.688-7.852      c-0.563-0.5-0.996-1.188-1.426-1.902c-0.566-0.918-1.574-1.484-2.645-1.484c-1.086,0-5.77-6.574-4.105-9.695      c0.238-4.254-8.086-17.813-15.465-26.113c-0.234-0.293-6.242-17.926-6.152-18.047c0.652-0.773,0.238-4.551,0.18-5.352      c-0.09-1.547-1.52-2.793-1.789-2.621c-0.328,0.246-1.355-0.125-1.762-0.527c-1.352,9.074-2.063,18.355-2.063,27.801      c0,45.895,16.598,87.906,44.098,120.395C114.902,443.613,117.875,439.566,119.359,437.105z" fill="#B0E269"/><path d="M145.766,180.746c0.629,0.152,1.223,0.334,1.875,0.094c3.359-1.246,4.34-0.18,7.137-1.426h0.031      c3.656-1.633,3.805-9.721,8.785-14.18c0.477-0.453,1.012-0.84,1.563-1.16c0.922-0.602,1.516-1.488,2.141-2.328      c0.098-0.133,0.219-0.246,0.32-0.367c-8.824,4.754-17.219,10.215-25.113,16.281c0.938,0.348,1.734,1.059,2.137,2.053      C144.828,180.219,145.262,180.605,145.766,180.746z" fill="#B0E269"/><path d="M138.422,182.533c0.582-0.113,0.789-0.326,0.953-0.68c0.117-0.24,0.328-0.414,0.594-0.506      c0.34-0.809,0.27-1.334-0.031-1.68c-1.051,0.832-2.094,1.68-3.125,2.539C137.281,182.533,137.863,182.668,138.422,182.533z" fill="#B0E269"/><path d="M204.691,147.533h-0.02c-2.5,0.127-6.91,2.768-7.73,3.154c-1.664,0.84-3.164,2.227-4.148,3.299      c-0.488,0.566,0.375,0.748,1.059,1.014c0,0-5.367,3.746-6.082,4.785c-0.133,0.207-0.133,0.475-0.016,0.688h0.031      c-1.281,1.273-0.672,3.859-0.535,4.133c0.207,0.414-0.266,1.248-0.18,1.248c0.238,0.061-0.742,1.041-0.891,1.246      c-0.234,0.361,0.074,1.279,0.594,1.254c0.535-0.033,0.863-0.354,1.371-0.92c0,0,1.367-0.781,2.273-1.52      c0.891-0.742,2.688-0.953,3.371-2.201c0.359-0.686,2.055-1.193,2.129-0.953c0.07,0.326,4.234-1.541,4.09-2.26      c-0.121-0.68,0.27-0.74,0.711-0.566c0.297,0.119,0.551,0.027,0.746-0.113c1.25-1.074,3.148-2.32,4.727-1.934      c0.387,0.121,0.801,0.059,1.133-0.152c1.586-0.895-0.18,0.273,0.055,0.625c0.063,0.086,0.18,0.148,0.27,0.086      c0.68-0.266,1.395-0.387,2.113-0.412c1.008,0,3.965-0.953,4.027-0.98c0.016,0,0.016,0,0.016,0      c3.18-1.639,4.488-2.674,5.145-2.232c0.207,0.146,0.328,0.387,0.297,0.625c0,0,0.016,0,0.031,0.027      c0.504,0.359,1.066,0,1.676-0.18c0,0,0.492,0.539,2.41,0.514c-0.461,1.154,19.488-3.16,32.133-13.654      c1.242-1.025,2.551-2.012,3.883-2.98c-1.125-0.02-2.25-0.045-3.379-0.045c-15.637,0-30.816,1.939-45.328,5.561      C208.871,145.826,206.047,147.461,204.691,147.533z" fill="#B0E269"/><path d="M327.434,153.32c-0.844-0.148-1.715,0.078-2.355,0.641c-0.684,0.592-2.828,1.512-3.094,1.752      c-0.297-0.086-0.625-0.086-0.949,0.027c-1.25,0.479-1.965,2.859-1.699,3.721c0.09,0.359-0.98,1.512-1.426,1.365      c-0.266-0.086-0.984,0.533-0.625,0.801c0.414,0.334-1.066,1.072-1.34,0.986c-1.547-0.48-2.434,1.426-2.824,1.873      c-0.238,0.295-3.746,3.627-1.785,3.627c0.539,0,0.094,1.395-1.305,0.895c-1.223-0.449-2.383-1.074-3.359-1.875      c-0.66-0.506,3.387-4.193,3.504-5.352c0.152-1.16-7.73-2.707-10.348-3.928c-2.258-1.041-4.133-0.861-4.699-1.607      c-0.234-0.326-0.355-0.738-0.266-1.16c-1.219-0.232-1.988-0.387-2.531-0.473c-0.504-0.121-2.016-0.146-4.098,0.508      c-4.492,1.426-8.773,5.619-8.773,5.619s-0.863,1.453-1.695,2.406c-0.742,0.861-1.309,1.906-2.172,2.707      c-0.328,0.293-0.563,0.713-0.652,1.16c-0.445,0.119-0.805,0.473-0.926,0.92c-0.531,1.934-2.078,4.848-10.301,8.301h-0.016      c-2.406,1.039-3.926,3.445-3.793,6.092c0.051,0.893,0.27,1.693,0.645,2.467c0.324,9.193,0.324,9.193,12.813,3.395      c0.598,0.832,1.25,1.906,1.727,2.939c0.477,1.041,0.832,2.025,0.863,2.705c0.684,0.715,6.098,0.361,7.195-1.719      c0.922-1.787-0.477-3.66,0.203-5.441c0,0,0.035,0,0.035-0.031c0.863-2.113,1.07-4.4,0.625-6.633      c-0.184-1.041,3.063-7.375,3.625-8.234c0.953-1.488,5.059-4.58,5.328-3.334c0.113,0.42,0,0.893-0.27,1.221      c-0.684,0.867-0.98,2.053-1.574,2.973c-1.223,1.848-1.492,4.168-0.719,6.246c0.684,1.814,4.43,3.48,4.848,3.207      c0.031,0,0.031,0,0.031-0.027c0,0,6.66-1.691,8.77-1.246c0.211,0.055,0.359,0.207,0.418,0.414      c0.059,0.18-0.031,0.387-0.18,0.533c-2.527,2.26-3.031,0.748-5.68,1.254c-0.918,0.146-1.637,0.885-1.754,1.813      c-0.09,0.834,0.297,1.635,1.012,2.08c0.117,0.086,0.207,0.24,0.18,0.387c0,0-0.566,1.514-1.309,1.848      c-0.566,0.232-1.191,0.232-1.727,0c-0.414-0.215-0.891-0.154-1.277,0.086c-0.77,0.508-0.836,3.719-0.477,4.76      c0.594,1.693-2.555,4.754-3.805,4.514c-2.59-0.473-5.266-0.055-7.582,1.16c-1.102,0.6-2.438,0.387-3.363-0.441      c-0.625-0.566-0.027-0.805-0.801-1.279c-0.148-0.119-4.195,1.574-4.375,1.635c-0.176,0.059-0.832-0.328-0.859-0.535      c0-0.025,0-0.025,0-0.025c-0.09-0.779-2.438-0.959-2.797-2.354c-0.164-0.605,0.195-1.533,1.25-2.807      c-2.512,0.205-7.656,0.365-2.809,0.846c-0.195,0.947-0.223,1.994-0.074,3c0.25,3.422-3.645,3.008-3.984,3.387      c0,0.035,0,0.035,0,0.035c-0.508,0-1.223,0-2.41,0.092c-0.504,0.053-0.98,0.32-1.277,0.707c-0.031,0.066-0.043,0.119-0.031,0.18      c0.031,0.273-0.145,0.541-0.434,0.594c-0.918,0.24-1.766,0.686-2.449,1.314c-1.637,1.459-2.453,2.078-4.168,3.031      c-1.188,0.654-2.242,1.516-3.148,2.555c-0.355,0.42-1.16,0.893-3.035,1.965c-0.176,0.088-0.297,0.268-0.355,0.475      c-0.086,0.387-0.414,0.713-0.828,0.773c-1.699,0.232-2.176-0.18-3.125-0.807c-0.504-0.32-0.895,0.359-0.762,0.781      c0,0.025,0,0.025,0,0.025c0.137,0.412,0.047,0.893-0.219,1.252c-0.238,0.32-0.656,0.563-1.102,0.594      c-1.16,0.061-2.305-0.213-3.332-0.713c-0.086-0.066-0.207-0.066-0.297-0.033c-1.695,0.533-2.676,2.561-2.258,2.586      c2.91,0.328,2.855,0.834,4.012,1.574c0.332,0.207,0.566,0.566,0.715,0.926c0.18,0.387,0.281,0.801,0.418,1.221      c5.676,4.221-9.551,4.221-12.191,9.959c-0.34-0.18-0.684-0.324-1.012-0.473c-11.57-5.238-11.539-4.672-10.691,16.32      c-0.074,0.328,1.023,4.578,1.441,4.852c0.313,0.211,1.34-0.273,1.949-0.539c0.457-0.18,0.727-0.293,1.727,0.859      c0.934,1.047,0.207,3.508,2.168,3.543c0.52,0,0.832-0.508,0.965-0.801c0.152-0.359,0.152-0.359,3.926-1.195      c1.668-0.352,3.285,0.715,4.965,0.18c1.281-0.383,1.34-2.078,2.648-2.438c0.895-0.266,1.816,0.211,2.664-0.199      c0.457-0.273,0.043-1.668,0.547-2.121c0.773-0.68,1.09-1.754,0.773-2.734c-0.148-0.445-0.117-0.594-0.031-0.953      c0.078-0.387,7.691-5.672,10.293-7.191c2.316-1.309,0.715-4.848,3.422-5.922c2.508-1.004,13.109-2.492,13.82-2.551      c0.746-0.035,1.43,0.145,1.996,0.41c0.859,0.422,1.605,1.047,2.109,1.875c2.469,3.953,10.977,9.992,11.688,10.465      c0.711,0.508,1.457,1.039,4.547,4.727c0.211,0.57,0.211,1.074-0.27,1.254c-0.648,0.293-0.648,0.48-0.648,0.715      c0.031,0.531-0.418,1.008-0.09,1.539c0.09,0.152,0.414,0.625,1.16,0.273c0.863-0.445,0.531-0.594,0.863-1.281      c0.859-1.691,0.828-1.777,0.801-1.777c0.297-0.207,0.832-0.035-4.254-9.875c-0.711-0.035-1.398-0.207-2.02-0.504      c-0.625-0.336-1.16-0.809-1.578-1.395l-4.906-7.113c-0.176-0.301-0.383-0.621-0.563-0.953c-0.328-0.568-0.031-1.273,0.563-1.516      c0.031,0,0.059-0.025,0.121-0.025c0.918-0.301,1.961,0.086,2.5,0.92c0.262,0.414,0.531,0.859,1.039,0.824      c0.594-0.023,1.16,0.129,1.664,0.484c0,0,2.078,1.543,4.191,3.09c1.043,0.773,2.109,1.516,11.27,12.047      c0.211,0.176,0.508,0.379,0.684,0.563c0.18,0.207,0.242,0.266,0.629,0.918c0.145,0.266,1.215,1.219,1.215,1.219      c0.059,0.063,0.18,0.121,0.328,0.121c0.027,0,0.027,0,0.027,0c0.332,0,0.598-0.121,0.895-0.094      c0.891,0.063,2.262,1.195,3.332,0.688c0.09-0.059,1.188-0.688,1.188-0.688v-0.027c2.559-1.156-0.594-2.344-0.684-3.504      c-0.027-0.422,0.121-0.742,0.387-0.926c0.27-0.176,0.594-0.207,0.953-0.055c0.18,0.086,0.418,0.055,0.566-0.063      c0.203-0.145,0.355-0.359,0.414-0.625c0.27-1.332,1.633-1.719,3.004-1.719c1.129,0,2.23,0.293,3.211,0.828      c0.414,0.238,0.863,0.324,1.336,0.324c0.445-0.027,0.863-0.121,1.281-0.266c0.387-0.148,0.773-0.355,0.832-0.293      c-0.18,0.145-0.418,0.293-0.715,0.473s-0.652,0.359-1.07,0.504h-0.031c-0.711,0.297-1.102,1.043-0.922,1.762      c0.328,1.453,3.391,2.906,1.402,4.781c-0.031,0.027-0.063,0.059-0.063,0.059c1.102,0.48,2.051,1.281,2.645,2.289      c0.508,0.867,1.313,1.578,2.234,2.109c0.473,0.301,0.98,0.535,1.484,0.715c-0.324,2.793,14.898,2.793,21.086,2.441      c0.117,0.531,0.266,1.102,0.441,1.664c1.281,4.496,2.887,8.98-1.844,12.906c-0.563,0.441-15.164,0.949-21.613,1.367      c-3.723,0.27-4.254-1.07-5.414-1.098c0,0,0,0-0.031,0c0,0,0,0-0.027,0c-1.254,0.027-1.488,0.027-3.363-0.387      c-1.16-0.266-4.25-4.727-8.504-1.309c-1.219,1.008-1.934,2.289-1.871,3.035c0.508,10.586-16.949-1.434-19.18-2.086      c-2.469-0.715-10.41-3.836-11.125-3.867c-0.25-0.027-0.383-1.336,0.418-2.141c2.113-2.113,2.766-2.973,2.082-4.102      c-1.754-2.945-2.145-4.699-2.156-4.73c-0.547-0.684-1.414-1.066-2.305-1.008c-26.316,1.66-31.996,2.434-37.184,4.906      c-0.461,0.207-1.398,0.652-2.871,0.027c-1.129-0.5-2.379-0.566-3.555-0.148c-1.707-1.133-3.938-1.004-5.512,0.266l-8.582,6.988      c-0.875,0.715-1.617,1.547-2.211,2.5c-1.551,2.441-1.457,4.281-1.414,5.148c0.133,2.758-7.719,7.82-11.852,7.34      c0,0-0.016,0-0.027,0v-0.027c-1.906,0.773-3.543,1.453-13.086,14.754c-5.23,7.281-5.23,7.281-4.18,9.332      c0.566,1.066,1.723,3.301,0.852,9.367c-0.047,0.387-4.043,13.914-4.043,13.914c-1.031,3.418,1.813,9.965,1.813,9.965      s1.082,2.047,1.203,2.313c0.785,1.789,1.887,11.75,4.828,16.301c0.465,0.715,15.766,13.77,18.008,14.207      c6.629,1.254,20.922,4.047,21.266,4.082c7.547,0.504,13.75-5.77,21.066-6.281c1.691-0.113,5.203,0.988,6.094,6.098      c0.656,3.844,6.543,2.621,9.309,1.816c1.262-0.387,2.602-0.293,3.82,0.18c0.016,0,0.016,0.027,0.016,0.027v0.031      c0.086,0.836,2.676,1.547,2.926,1.934c1.504,2.293,0.449,14.395-2.156,16.473c-0.277,0.207-0.504,0.508-0.637,0.836      c2.809,5.797,8.969,8.711,8.969,8.711c0.891,0.953,6.184,10.082,6.75,14.121c0.859,6.129,0.859,4.965,1.008,5.234      c2.703,4.406,0.359,6.512-1.309,7.348c-0.504,0.266-5.414,11.684-5.383,13.586c0,1.75,2.887,3.426,3.898,4.852l6.512,9.102      c0.117,0.145,0.234,0.293,0.355,0.438c2.262,2.859-1.219,6.875,0.801,9.727c0.656,0.922,2.262,4.668,3.125,5.234      c1.309,0.895,6.836,8.887,5.199,10.262c-0.18,0.145-0.18,0.531-0.086,0.738c0.504,1.426,7.199,3.688,9.664,2.648      c3.691-1.574,11.387-2.797,14.539-2.766c4.34,0.031,25.223-14.957,23.582-20.129c-0.027-0.059-0.027-0.152-0.027-0.215h0.027      c2.438-2.879,9.516-6.453,9.34-6.805c0,0,0,0-0.031,0c0.926-2.055,3.063-12.16,6.004-14.336c2.5-1.836,6.156-4.492,11.512-8.352      c3.328-2.438,4.996-4.133,4.727-14.574c-0.27-9.574-1.965-17.039-2.527-18.645c-0.805-2.289-0.594-2.703,0.324-4.367      c2.68-4.969,17.996-27.094,20.727-29.621c0.121-0.121,0.242-0.238,0.328-0.352c4.996-5.828,7.852-13.707,9.668-21.113      c0.383-1.582,0.98-3.063,1.457-4.613c0.113-0.414,0.297-1.961,0.441-3.773c0.063-0.594,0.121-1.223-7.699-4.969      c-0.332,0.121-0.684,0.242-1.012,0.363c-5.207,1.805-11.27,3.652-11.926,3.031c-0.98-0.895-1.602-2.027-1.871-3.359      c-0.27-1.375-0.98-2.648-2.051-3.66c-5.652-5.262-16.715-8.68-19.332-22.988c-0.414-2.141-16.141-24.887-19.355-29.465      c-0.355-0.508-0.477-1.16-0.328-1.762c0-0.023,0-0.023,0-0.023c0.625,1.543,3.063,4.336,4.551,5.883      c0.414,0.449,1.012,0.629,1.516,0.27c0.566-0.441,0.18-1.102,0.324-3.148c0.031-0.598,0.895-0.652,0.984-0.059      c0.207,1.273,0.832,2.465,1.785,3.387c2.078,1.992,4.637,5.766,6.301,8.387c1.043,1.605,2.441,2.918,4.105,3.867      c2.379,1.34,3.09,3.566,4.82,8.766c1.992,6.219,9.273,7.707,11.953,13.301c2.258,4.727,7.727,13.285,8.32,13.172      c4.406-1.039,8.566-4.434,9.816-5.414c0.445-0.324,0.863-0.652,1.277-0.984c0.387-0.32,0.773-0.621,1.133-0.922      c17.633-5.352,17.633-5.352,17.156-13.285c0-0.328,0.027-0.66,0.027-1.016c0-2.465-0.117-5.68-0.266-9.785      c0.031-0.328,0.09-0.652,0.148-0.98c0.746-5.086,1.043-11.531,1.785-12.906c-0.207-0.387-0.508-0.742-0.863-1.066      c-0.387-0.301-0.832-0.602-1.367-0.867c-1.754-0.828-3.836,0.48-5.469-0.918c0,0,0-0.027-0.035-0.027      c-0.891-0.781-2.078-1.074-3.211-0.836c-1.156,0.234-2.137,0.98-2.645,2.047c0,0-0.031,0-0.031,0.035      c-0.441,0.918-1.305,1.547-2.316,1.691c-1.637,0.242-1.461,0.508-2.707,1.461c-2.199-1.125-3.688-1.426-9.395-9.246      c-0.242-0.352-0.477-0.715-0.746-1.074c-2.887-4.254,12.34-4.254,10.523-0.746c0.422,0.094,0.836,0.18,1.25,0.266      c0.418,0.066,0.805,0.094,1.191,0.066c0.742-0.031,1.336-0.211,1.602-0.652c12.641-3.094,13-3.188,29.77-5.859      c0.504-0.063,0.98-0.148,1.488-0.207c0.664,0.152,1.281,0.301,1.875,0.441C416.348,215.867,377.375,174.055,327.434,153.32z" fill="#B0E269"/></g></g><path d="M332.066,155.307c45.391,34,74.762,88.221,74.762,149.299c0,102.969-83.469,186.434-186.434,186.434    c-27.094,0-52.836-5.777-76.066-16.172C175.453,498.188,214.113,512,256,512c102.965,0,186.438-83.465,186.438-186.434    C442.438,249.691,397.109,184.414,332.066,155.307z" opacity="0.1"/></g><path d="M336.469,36.527c-10.414-11.434-22.559-20.406-36.086-26.674C286.309,3.32,271.371,0,255.98,0   c-15.371,0-30.293,3.32-44.359,9.854c-13.535,6.268-25.676,15.24-36.109,26.674c-21.32,23.393-33.063,54.453-33.063,87.459   c0,31.486,14.195,70.367,42.203,115.541c22.039,35.527,46.875,65.617,59.715,80.398c2.918,3.621,7.109,5.633,11.621,5.633h0.023   c4.496,0,8.699-2.012,11.523-5.52c12.926-14.887,37.75-44.957,59.789-80.512c28.016-45.174,42.227-84.047,42.227-115.541   C369.551,90.98,357.805,59.92,336.469,36.527z" fill="#EC5564"/><path d="M256.004,69.559c-29.188,0-52.945,23.748-52.945,52.949c0,29.191,23.758,52.953,52.945,52.953   c29.18,0,52.938-23.762,52.938-52.953C308.941,93.307,285.184,69.559,256.004,69.559z" fill="#D94452"/></g></svg>