<?xml version="1.0" ?><!DOCTYPE svg  PUBLIC '-//W3C//DTD SVG 1.1//EN'  'http://www.w3.org/Graphics/SVG/1.1/DTD/svg11.dtd'><svg enable-background="new 0 0 512 512" height="512px" id="Слой_1" version="1.1" viewBox="0 0 512 512" width="512px" xml:space="preserve" xmlns="http://www.w3.org/2000/svg" xmlns:xlink="http://www.w3.org/1999/xlink"><g id="Mission"><path d="M32.781,479.219c26.27-48.957,57.457-104.426,66.984-113.953c6.27-6.273,14.609-9.727,23.48-9.727   c8.875,0,17.211,3.453,23.484,9.727c12.949,12.949,12.949,34.02,0,46.969C137.199,421.766,81.734,452.945,32.781,479.219z" fill="#FECD57"/><path d="M156.387,355.605c-9.148-9.152-21.145-13.727-33.141-13.727c-11.992,0-23.984,4.574-33.141,13.727   C71.805,373.914,0,512,0,512s138.086-71.809,156.391-90.105C174.695,403.586,174.691,373.914,156.387,355.605z M137.113,402.539   c-1.66,1.555-12.441,10.469-70.109,42.453c31.984-57.668,40.898-68.453,42.461-70.105c3.684-3.672,8.578-5.688,13.781-5.688   c5.223,0,10.133,2.035,13.828,5.727C144.684,382.535,144.695,394.906,137.113,402.539z" fill="#F5BA45"/><path d="M168.598,399.539c0,0-13.898-10.348-29.551-26c-15.656-15.66-27.18-30.727-27.18-30.727l7.68-28.945   l78.586,78.586L168.598,399.539z" fill="#303842"/><path d="M192.898,398.906c0,0-19.75-14.715-42.008-36.973c-22.254-22.254-38.637-43.672-38.637-43.672   l10.918-41.148l111.715,111.711L192.898,398.906z" fill="#424953"/><g><path d="M364.383,360.262l-7.965-63.844l-121.527,92.406l-7.73,104.355    C283.621,465.277,364.383,360.262,364.383,360.262z" fill="#D94452"/><path d="M151.734,147.613l63.844,7.967l-92.406,121.525L18.813,284.84    C46.723,228.379,151.734,147.613,151.734,147.613z" fill="#D94452"/></g><path d="M512,0C403.414,19.766,299.52,71.621,215.566,155.574c-37.059,37.051-67.852,78.008-92.406,121.523   c0,0,32.746,39.18,51.918,58.641c19.172,19.453,59.82,53.094,59.82,53.094c43.52-24.547,84.469-55.344,121.523-92.406   C440.379,212.48,492.242,108.586,512,0z" fill="#E5E8EC"/><path d="M243.543,287.773c-45.012,45.012-120.555,101.238-120.555,101.238s56.227-75.547,101.238-120.559   c45.012-45.014,57.828-46.395,61.77-42.453C289.941,229.941,288.555,242.762,243.543,287.773z" fill="#EC5564"/><path d="M316.695,195.307c-19.559-19.561-19.559-51.381,0-70.939c19.555-19.555,51.375-19.555,70.934,0.006   c19.559,19.553,19.559,51.373,0,70.934C368.07,214.859,336.25,214.859,316.695,195.307z" fill="#303842"/><path d="M393.09,118.914c-22.602-22.607-59.254-22.607-81.855-0.008c-22.602,22.605-22.602,59.254,0,81.859   c22.602,22.602,59.254,22.602,81.855,0C415.691,178.16,415.691,141.512,393.09,118.914z M382.172,189.848   c-16.547,16.545-43.473,16.545-60.02,0c-16.551-16.547-16.551-43.475,0-60.021c16.547-16.547,43.469-16.547,60.02,0   C398.719,146.373,398.719,173.301,382.172,189.848z" fill="#A9B1BC"/><path d="M432,80c14.047,14.047,29.473,25.873,45.832,35.492C493.434,78.094,504.84,39.359,512,0   c-39.359,7.16-78.094,18.566-115.492,34.16C406.125,50.527,417.953,65.953,432,80z" fill="#D94452"/></g></svg>