<?xml version="1.0" ?><!DOCTYPE svg  PUBLIC '-//W3C//DTD SVG 1.1//EN'  'http://www.w3.org/Graphics/SVG/1.1/DTD/svg11.dtd'><svg enable-background="new 0 0 512 512" height="512px" id="Слой_1" version="1.1" viewBox="0 0 512 512" width="512px" xml:space="preserve" xmlns="http://www.w3.org/2000/svg" xmlns:xlink="http://www.w3.org/1999/xlink"><g id="Market_Research"><g><rect fill="#A9B1BC" height="214.207" width="15.848" x="15.85" y="187.66"/><rect fill="#A9B1BC" height="214.207" width="15.848" x="349.793" y="187.66"/><g><g><rect fill="#E5E8EC" height="184.492" width="64.523" x="62.547" y="131.199"/><rect fill="#AC92EA" height="173.732" width="64.523" x="62.547" y="186.533"/><circle cx="94.809" cy="360.266" fill="#AC92EA" r="32.262"/><path d="M134.5,123.773c0,4.105-3.326,7.426-7.43,7.426H62.547c-4.104,0-7.43-3.32-7.43-7.426l0,0      c0-4.102,3.326-7.426,7.43-7.426h64.523C131.174,116.348,134.5,119.672,134.5,123.773L134.5,123.773z" fill="#CBD0D8"/></g><path d="M74.713,153.406v196.699c0,4.688,3.805,8.492,8.494,8.492c4.686,0,8.49-3.805,8.49-8.492     V153.406H74.713z" fill="#FFFFFF" opacity="0.2"/></g><g><g><rect fill="#E5E8EC" height="184.484" width="64.521" x="158.484" y="116.348"/><rect fill="#46CEAD" height="173.732" width="64.521" x="158.484" y="186.533"/><path d="M223.006,360.266c0,17.82-14.443,32.262-32.26,32.262c-17.82,0-32.262-14.441-32.262-32.262      S172.926,328,190.746,328C208.563,328,223.006,342.445,223.006,360.266z" fill="#46CEAD"/><path d="M230.438,123.773c0,4.105-3.328,7.426-7.432,7.426h-64.521c-4.104,0-7.432-3.32-7.432-7.426l0,0      c0-4.102,3.328-7.426,7.432-7.426h64.521C227.109,116.348,230.438,119.672,230.438,123.773L230.438,123.773z" fill="#CBD0D8"/></g><path d="M170.654,153.406v196.699c0,4.688,3.799,8.492,8.488,8.492c4.688,0,8.49-3.805,8.49-8.492     V153.406H170.654z" fill="#FFFFFF" opacity="0.2"/></g><g><g><rect fill="#E5E8EC" height="184.492" width="64.523" x="254.422" y="131.199"/><rect fill="#EB87BF" height="173.732" width="64.523" x="254.422" y="186.533"/><circle cx="286.684" cy="360.266" fill="#EB87BF" r="32.262"/><path d="M326.375,123.773c0,4.105-3.328,7.426-7.43,7.426h-64.523c-4.105,0-7.43-3.32-7.43-7.426l0,0      c0-4.102,3.324-7.426,7.43-7.426h64.523C323.047,116.348,326.375,119.672,326.375,123.773L326.375,123.773z" fill="#CBD0D8"/></g><path d="M266.59,153.406v196.699c0,4.688,3.801,8.492,8.488,8.492s8.492-3.805,8.492-8.492V153.406     H266.59z" fill="#FFFFFF" opacity="0.2"/></g><rect fill="#CBD0D8" height="33.453" width="381.484" y="170.939"/><rect fill="#CBD0D8" height="33.453" width="381.484" y="392.527"/></g><g><path d="M503.719,388.762L395.531,212.873V70.34h-94.359v142.533l-0.746,1.227L193.131,388.551    c-5.564,8.094-8.424,17.344-8.424,26.938c0,26.02,21.176,47.211,47.191,47.211h232.93c26.008,0,47.172-21.191,47.172-47.211    C512,405.867,509.141,396.621,503.719,388.762z" fill="#E5E8EC"/><path d="M408.156,59.82c0,5.805-4.711,10.52-10.52,10.52H299.07c-5.805,0-10.516-4.715-10.516-10.52l0,0    c0-5.809,4.711-10.52,10.516-10.52h98.566C403.445,49.301,408.156,54.012,408.156,59.82L408.156,59.82z" fill="#CBD0D8"/><path d="M512,415.488c0-9.621-2.859-18.867-8.281-26.727l-41.043-66.727c-14.266,9.59-30.648,16.523-48.648,19.789    c-35.957,6.535-71.117-2.605-98.52-22.512c-19.488-12.898-42.477-20.52-66.691-21.305l-55.686,90.543    c-5.564,8.094-8.424,17.344-8.424,26.938c0,26.02,21.176,47.211,47.191,47.211h232.93C490.836,462.699,512,441.508,512,415.488z" fill="#9ED36A"/><path d="M315.68,96.113l0.289,124.633L201.793,407.047c-2.93,4.82-1.396,11.098,3.42,14.027    c4.82,2.926,11.1,1.391,14.027-3.422l117.146-191.191l-0.293-130.348H315.68z" fill="#FFFFFF" opacity="0.2"/></g></g></svg>